<svg version="1" xmlns="http://www.w3.org/2000/svg" width="1365.333" height="1365.333" viewBox="0 0 1024.000000 1024.000000"><path d="M512.1 89.5c-1.8 7.4-5 19-7.2 25.8l-3.9 12.4-9.1.6c-5.1.4-14.7.7-21.4.7-48.7 0-114.2 7.7-158.3 18.6-79.6 19.6-140.3 54.8-186.1 107.9-49.9 57.9-79.9 135.5-92.3 239-1.7 14.6-1.7 62.6 0 76.5 4.3 34 11.9 63.9 24.3 95.5 6.2 16 23 48.8 33.4 65.3 57.8 92 153 165 263 201.7 79.6 26.5 161.8 32.8 244.8 18.9 97.6-16.3 188.4-61.1 259.6-128 29.3-27.5 61.5-68.5 81-103.1 25.4-45 42.3-95.5 49.2-146.7 8.4-63.4-3.6-168.8-27.5-240.9-7.6-23.1-12.8-35.7-22.7-55.7-28.9-58.1-68-98.9-119.7-125-36.4-18.3-75.3-28.2-126.2-32.1-19.3-1.5-72.3-.6-97.5 1.5-9.9.9-22.2 1.9-27.4 2.2l-9.4.7.8-14.6c.4-8.1 1.2-19.2 1.9-24.7l1.2-10-2.1 1.9c-7.2 6.7-34.3 6.8-42.7.1l-2.5-1.9-3.2 13.4zm213.2 58.6c12.2 2.4 22.3 6.2 31.9 12 7.7 4.5 23.1 18.6 26.1 23.9l1.9 3.1-4.9-2.4c-36.5-18.3-86.8-7.4-135.9 29.4-5 3.7-9.6 7.5-10.3 8.3-1.1 1.3-.9 1.4 2.1.5 6.9-2 26.4-3.9 39.6-3.9 55 0 104.2 21.1 142.8 61.1 4.4 4.6 10.9 12 14.3 16.3 5.9 7.5 16.1 22 16.1 22.9 0 .3-4-1-9-2.9-12.3-4.6-28.2-8.9-42.5-11.5-10.5-1.9-17-2.3-52.7-2.8-25.1-.4-41-1-41.6-1.6-.5-.6-3.2-4-6.1-7.7-18.3-23.6-48.9-39.8-89.1-47.3-8-1.5-15.4-3.1-16.6-3.5-5-1.9-24-47.1-24.7-58.6l-.2-3.5 11-4.8c33.7-14.8 73.5-26.2 101.5-29 13.5-1.4 34.2-.5 46.3 2zM396 176.5c22.5 3.2 41.7 9.2 61.2 19.2l10.8 5.5-1.6 3c-1.5 2.9-9.3 15.9-10 16.7-.1.1-6.3-.9-13.6-2.3-58.5-11.3-63.4-12-92.1-13.8-39.4-2.4-78 2.3-112.6 13.8-7.3 2.4-13.6 4.4-14 4.4-1.7-.1 18.2-12 30.9-18.4 30.2-15.3 61.3-25.1 90.8-28.6 11.7-1.3 39.1-1.1 50.2.5zm70.9 60.4c10.7 8.4 22.7 13.4 37 15.2 8.7 1 18 .8 39.3-1.3l11.6-1.1 8.5 4.6c48.4 26.2 82.9 59.2 102.5 98.2 10.3 20.6 16.9 41.5 28.2 88.4 11.5 48.1 19.1 73.1 29.9 98.2 4.5 10.7 13.7 29.2 12.8 25.9-1.6-5.8-1.4-5.8 1.1-.5 1.6 3.3 2.8 6.2 2.6 6.3-.3.5-8.9-3.9-14-7.1-10.3-6.5-24-21.9-34.5-38.7-7.3-11.9-18.1-32.9-29.4-57.5-27.7-60.3-44.2-88.6-59.5-102.9-10.8-10-22.7-14.5-52.5-20.1-24.5-4.5-35.1-9-44-18.7-9.8-10.6-15.1-25.9-16.2-47.1-.3-6.4-.8-11.7-1.1-11.7-.2 0-3 2.4-6.2 5.3-6 5.6-17.3 12-28.5 16.3-9.8 3.6-29.7 8.6-59.5 14.9-59.2 12.5-86.8 21.3-119.2 37.7-33.1 16.7-64.6 43-86.3 72-11.9 15.9-12.4 15.8-2-.2 31.4-48.6 74.9-94.4 119-125.2 41.9-29.2 90.1-47.9 135.5-52.7 16.9-1.7 20.8-1.4 24.9 1.8z"/></svg>