<?xml version="1.0" encoding="UTF-8"?>
<svg viewBox="0 0 410.84589 342.45456" xmlns="http://www.w3.org/2000/svg">
 <defs>
  <filter id="b">
   <feGaussianBlur stdDeviation="18.56572"/>
  </filter>
  <linearGradient id="a" x2="0" y1="8.646" y2="33.175" gradientUnits="userSpaceOnUse">
   <stop stop-color="#fff" offset="0"/>
   <stop stop-color="#fff" stop-opacity="0" offset="1"/>
  </linearGradient>
 </defs>
 <g transform="translate(-9.0084 -9.5289)">
  <path transform="matrix(.34089 0 0 .34109 298.79 -2.1125)" d="m-803.15 81.025v861.27c0 27.098 19.974 48.924 44.812 48.924h1021.8c24.838 0 44.812-21.826 44.812-48.924v-861.27h-1111.4z" filter="url(#b)" stroke="#1a1a1a" stroke-width="4.7003"/>
  <path d="m15.569 44.421v275.54c0 8.6693 6.9717 15.652 15.641 15.652h356.64c8.6693 0 15.641-6.9826 15.641-15.652v-275.54h-387.92z" fill="#999" stroke="#1a1a1a" stroke-width="1.5706"/>
  <path d="m31.21 19.889c-8.6693 0-15.641 6.9826-15.641 15.652v9.2821h387.92v-9.2821c0-8.6693-6.9717-15.652-15.641-15.652h-356.64z" stroke="#000" stroke-width="1.4659"/>
  <g transform="matrix(.32905 0 0 .32905 672.55 107.73)">
   <path transform="matrix(.52196 0 0 .52196 -484.51 -120.75)" d="m-920-204.78c0 25.247-20.467 45.714-45.714 45.714s-45.714-20.467-45.714-45.714 20.467-45.714 45.714-45.714 45.714 20.467 45.714 45.714z" fill="#4d4d4d" stroke="#000" stroke-linecap="round" stroke-width="4.2"/>
   <g fill="#fff" font-family="Sans" font-size="44.915" letter-spacing="0" stroke="#fff" stroke-width=".34248" word-spacing="0">
    <path d="m-986.19-242.31v11.492h11.448v5.1757h-11.448v11.492h-5.2196v-11.492h-11.448v-5.1757h11.448v-11.492h5.2196" fill="#fff" stroke="#fff"/>
   </g>
  </g>
  <g transform="matrix(.23852 -.22668 .22668 .23852 672.54 -136.97)">
   <path transform="matrix(.52196 0 0 .52196 -484.51 -120.75)" d="m-920-204.78c0 25.247-20.467 45.714-45.714 45.714s-45.714-20.467-45.714-45.714 20.467-45.714 45.714-45.714 45.714 20.467 45.714 45.714z" fill="#4d4d4d" stroke="#000" stroke-linecap="round" stroke-width="4.2"/>
   <g fill="#fff" font-family="Sans" font-size="44.915" letter-spacing="0" stroke="#fff" stroke-width=".34248" word-spacing="0">
    <path d="m-986.19-242.31v11.492h11.448v5.1757h-11.448v11.492h-5.2196v-11.492h-11.448v-5.1757h11.448v-11.492h5.2196" fill="#fff" stroke="#fff"/>
   </g>
  </g>
  <path transform="matrix(.17175 0 0 .17175 532.06 67.994)" d="m-920-204.78c0 25.247-20.467 45.714-45.714 45.714s-45.714-20.467-45.714-45.714 20.467-45.714 45.714-45.714 45.714 20.467 45.714 45.714z" fill="#4d4d4d" stroke="#000" stroke-linecap="round" stroke-width="4.2"/>
  <g transform="matrix(.45604 0 0 .26713 308.86 77.871)" fill="#fff" font-family="Sans" font-size="52.264" letter-spacing="0" word-spacing="0">
   <path d="m118.66-169.79h13.755v4.1852h-13.755v-4.1852"/>
  </g>
  <g transform="matrix(.34903 0 0 .34903 298.35 5.5887)">
   <path d="m276.92 178.3c8.7044 0 15.712 7.0075 15.712 15.712v699.4c0 8.7044-7.0075 15.712-15.712 15.712s-15.712-7.0075-15.712-15.712v-699.4c0-8.7044 7.0075-15.712 15.712-15.712z" fill="#666"/>
   <path d="m276.92 286.32c6.5283 0 11.784 5.2373 11.784 11.743v522.73c0 6.5056-5.2556 11.743-11.784 11.743s-11.784-5.2373-11.784-11.743v-522.73c0-6.5056 5.2556-11.743 11.784-11.743z" fill="#333"/>
   <g transform="matrix(.80413 0 0 1.5915 -172.25 -218.5)" fill="#666" font-family="Sans" font-size="40" letter-spacing="0" word-spacing="0">
    <path d="m546.3 474.46h25.039v3.2812h-25.039v-3.2812m0 7.9688h25.039v3.3203h-25.039v-3.3203"/>
    <path d="m546.3 488.87h25.039v3.2812h-25.039v-3.2812m0 7.9688h25.039v3.3203h-25.039v-3.3203"/>
   </g>
   <g transform="scale(-1)" fill="#333" font-family="Sans" font-size="40" letter-spacing="0" word-spacing="0">
    <path d="m-279.43-188.67-11.133-29.16h4.1211l9.2383 24.551 9.2578-24.551h4.1016l-11.113 29.16h-4.4727"/>
   </g>
   <g transform="scale(-1,1)" fill="#333" font-family="Sans" font-size="40" letter-spacing="0" word-spacing="0">
    <path d="m-277.68 899.51-11.133-29.16h4.1211l9.2383 24.551 9.2578-24.551h4.1016l-11.113 29.16h-4.4726"/>
   </g>
  </g>
  <path d="m16.267 44.826h386.33v20.236h-386.33z" fill="#333"/>
  <g transform="matrix(.34903 0 0 .34903 295.89 -10.355)" fill="#fff" font-family="Sans" font-size="40" letter-spacing="0" word-spacing="0">
   <path d="m-773.8 196.75v-22.176h13.376v2.656h-10.272v6.688h9.12v2.624h-9.12v10.208h-3.104"/>
   <path d="m-753.82948,196.74835h-2.976v-16.64h2.976v16.64m-1.504-19.648c-.53334,2e-005-.992-.17064-1.376-.512-.36267-.36264-.544-.84264-.544-1.44s.18133-1.06664.544-1.408c.384-.36264.84266-.54397 1.376-.544s.98133.18136 1.344.544c.384.34136.576.81069.576,1.408s-.192,1.07736-.576,1.44c-.36267.34136-.81067.51202-1.344.512"/>
   <path d="m-743.68848,197.06835c-1.83467-.0427-3.136-.43733-3.904-1.184s-1.152-1.90933-1.152-3.488v-19.968l2.976-.512v20c0,.49067.0427.89601.128,1.216s.224.57601.416.768 .448.34134.768.448c.31999.0853.71466.16 1.184.224l-.416,2.496"/>
   <path d="m-740.85848,188.46035c0-1.47199.21333-2.75199.64-3.84 .42667-1.10932.992-2.02665 1.696-2.752s1.51466-1.26932 2.432-1.632 1.85599-.54398 2.816-.544c2.23999,2e-005 3.95732.70402 5.152,2.112 1.19465,1.38668 1.79199,3.50935 1.792,6.368-1e-005,.12801-1e-005,.29868 0,.512-1e-005,.19201-.0107.37334-.032.544h-11.392c.128,1.72801.62933,3.04001 1.504,3.936s2.23999,1.344 4.096,1.344c1.04532,0 1.91999-.0853 2.624-.256 .72532-.192 1.26932-.37333 1.632-.544l.416,2.496c-.36268.192-1.00268.39467-1.92.608-.89601.21334-1.92001.32-3.072.32-1.45067,0-2.70934-.21333-3.776-.64-1.04534-.448-1.90934-1.056-2.592-1.824s-1.19467-1.67466-1.536-2.72c-.32-1.06666-.48-2.22932-.48-3.488m11.424-1.632c.0213-1.34399-.32001-2.44265-1.024-3.296-.68268-.87465-1.63201-1.31198-2.848-1.312-.68267,2e-005-1.29067.13868-1.824.416-.51201.25602-.94934.59735-1.312,1.024s-.65067.91735-.864,1.472c-.192.55468-.32,1.12001-.384,1.696h8.256"/>
   <path d="m-684.99 196.75v-22.176h13.536v2.656h-10.432v6.592h9.28v2.592h-9.28v7.68h11.232v2.656h-14.336"/>
   <path d="m-656.74098,183.62835c-.36268-.29865-.88534-.58665-1.568-.864s-1.42934-.41598-2.24-.416c-.85334,2e-005-1.58934.16002-2.208.48-.59734.29868-1.088.72535-1.472,1.28-.384.53335-.66134,1.17335-.832,1.92s-.256,1.54668-.256,2.4c0,1.94134.48,3.44534 1.44,4.512 .95999,1.04534 2.23999,1.568 3.84,1.568 .81066,0 1.48266-.032 2.016-.096 .55466-.0853.98132-.17066 1.28-.256v-10.528m0-11.2 2.976-.512v24.352c-.68268.192-1.55735.384-2.624.576s-2.29334.288-3.68.288c-1.28001,0-2.43201-.20266-3.456-.608s-1.89867-.98133-2.624-1.728-1.29067-1.65333-1.696-2.72c-.384-1.08799-.576-2.30399-.576-3.648 0-1.27999.16-2.45332.48-3.52 .34133-1.06665.832-1.98398 1.472-2.752s1.41866-1.36532 2.336-1.792c.93866-.42665 2.00533-.63998 3.2-.64 .95999,2e-005 1.80266.12802 2.528.384 .74666.25602 1.30132.50135 1.664.736v-8.416"/>
   <path d="m-645.64198,196.74835h-2.976v-16.64h2.976v16.64m-1.504-19.648c-.53334,2e-005-.992-.17064-1.376-.512-.36267-.36264-.544-.84264-.544-1.44s.18133-1.06664.544-1.408c.384-.36264.84266-.54397 1.376-.544s.98133.18136 1.344.544c.384.34136.576.81069.576,1.408s-.192,1.07736-.576,1.44c-.36267.34136-.81067.51202-1.344.512"/>
   <path d="m-637.70898,180.10835h6.304v2.496h-6.304v7.68c0,.83201.064,1.52534.192,2.08 .128.53334.32.96001.576,1.28 .256.29867.57599.512.96.64s.83199.192 1.344.192c.89599,0 1.61066-.096 2.144-.288 .55466-.21333.93866-.36266 1.152-.448l.576,2.464c-.29868.14934-.82134.33067-1.568.544-.74668.23467-1.60001.352-2.56.352-1.13067,0-2.06934-.13866-2.816-.416-.72534-.29866-1.312-.736-1.76-1.312s-.768-1.28-.96-2.112c-.17067-.85333-.256-1.83466-.256-2.944v-14.848l2.976-.512v5.152"/>
   <path d="m-565.26 174.57c-0.81069 2.3467-1.5894 4.5227-2.336 6.528-0.72535 1.984-1.44 3.872-2.144 5.664s-1.408 3.5093-2.112 5.152c-0.68268 1.6213-1.3867 3.232-2.112 4.832h-2.912c-0.72534-1.6-1.44-3.2107-2.144-4.832-0.68267-1.6427-1.3867-3.36-2.112-5.152-0.704-1.792-1.4293-3.68-2.176-5.664-0.74667-2.0053-1.5147-4.1813-2.304-6.528h3.424c1.152 3.3707 2.2827 6.6134 3.392 9.728s2.2507 6.0373 3.424 8.768c1.1733-2.7093 2.3147-5.6213 3.424-8.736 1.1093-3.136 2.2293-6.3893 3.36-9.76h3.328"/>
   <path d="m-559.39198,196.74835h-2.976v-16.64h2.976v16.64m-1.504-19.648c-.53334,2e-005-.992-.17064-1.376-.512-.36267-.36264-.544-.84264-.544-1.44s.18133-1.06664.544-1.408c.384-.36264.84266-.54397 1.376-.544s.98133.18136 1.344.544c.384.34136.576.81069.576,1.408s-.192,1.07736-.576,1.44c-.36267.34136-.81067.51202-1.344.512"/>
   <path d="m-555.17098,188.46035c0-1.47199.21333-2.75199.64-3.84 .42667-1.10932.992-2.02665 1.696-2.752s1.51466-1.26932 2.432-1.632 1.85599-.54398 2.816-.544c2.23999,2e-005 3.95732.70402 5.152,2.112 1.19465,1.38668 1.79199,3.50935 1.792,6.368-1e-005,.12801-1e-005,.29868 0,.512-1e-005,.19201-.0107.37334-.032.544h-11.392c.128,1.72801.62933,3.04001 1.504,3.936s2.23999,1.344 4.096,1.344c1.04532,0 1.91999-.0853 2.624-.256 .72532-.192 1.26932-.37333 1.632-.544l.416,2.496c-.36268.192-1.00268.39467-1.92.608-.89601.21334-1.92001.32-3.072.32-1.45067,0-2.70934-.21333-3.776-.64-1.04534-.448-1.90934-1.056-2.592-1.824s-1.19467-1.67466-1.536-2.72c-.32-1.06666-.48-2.22932-.48-3.488m11.424-1.632c.0213-1.34399-.32001-2.44265-1.024-3.296-.68268-.87465-1.63201-1.31198-2.848-1.312-.68267,2e-005-1.29067.13868-1.824.416-.51201.25602-.94934.59735-1.312,1.024s-.65067.91735-.864,1.472c-.192.55468-.32,1.12001-.384,1.696h8.256"/>
   <path d="m-522.76798,196.74835c-.59735-1.536-1.23735-3.28533-1.92-5.248-.66135-1.98399-1.26934-4.04266-1.824-6.176-.55468,2.13334-1.16268,4.19201-1.824,6.176-.66134,1.96267-1.29067,3.712-1.888,5.248h-2.592c-.98134-2.19733-1.94134-4.70399-2.88-7.52s-1.824-5.85598-2.656-9.12h3.2c.21333,1.00268.46933,2.09068.768,3.264s.608,2.34668.928,3.52c.34133,1.17334.69333,2.30401 1.056,3.392s.70399,2.03734 1.024,2.848c.36266-1.00266.71466-2.05866 1.056-3.168 .36266-1.13066.70399-2.26132 1.024-3.392 .31999-1.15199.61866-2.27199.896-3.36 .29866-1.10932.55466-2.14398.768-3.104h2.464c.19199.96002.42665,1.99468.704,3.104 .27732,1.08801.57599,2.20801.896,3.36 .31999,1.13068.65065,2.26134.992,3.392 .36265,1.10934.72532,2.16534 1.088,3.168 .31998-.81066.65065-1.75999.992-2.848 .36265-1.08799.71465-2.21866 1.056-3.392s.66131-2.34665.96-3.52 .55465-2.26132.768-3.264h3.072c-.83202,3.26402-1.71735,6.30401-2.656,9.12s-1.89868,5.32267-2.88,7.52h-2.592"/>
   <path d="m-461.89898,194.54035c3.24266,0 4.86399-1.10933 4.864-3.328-1e-005-.68266-.14934-1.25866-.448-1.728-.27734-.49066-.66134-.90666-1.152-1.248-.49068-.36266-1.05601-.67199-1.696-.928-.61867-.25599-1.28001-.51199-1.984-.768-.81067-.27732-1.57867-.58665-2.304-.928-.72534-.36265-1.35467-.77865-1.888-1.248-.53333-.49065-.96-1.06665-1.28-1.728-.29867-.66132-.448-1.46132-.448-2.4 0-1.94131.66133-3.45598 1.984-4.544s3.14666-1.63198 5.472-1.632c1.34399,2e-005 2.55999.14936 3.648.448 1.10932.27736 1.91999.58669 2.432.928l-.992,2.528c-.44801-.27731-1.12001-.54398-2.016-.8-.87468-.27731-1.89868-.41598-3.072-.416-.59734,2e-005-1.15201.064-1.664.192s-.96.32002-1.344.576-.69334.58669-.928.992c-.21334.38402-.32.84269-.32,1.376 0,.59735.11733,1.09868.352,1.504s.56533.76802.992,1.088c.42666.29868.91733.57602 1.472.832 .57599.25602 1.20533.51201 1.888.768 .95999.38401 1.83466.76801 2.624,1.152 .81066.38401 1.50399.84268 2.08,1.376 .59732.53334 1.05599,1.17334 1.376,1.92 .31999.72534.47999,1.61068.48,2.656-1e-005,1.94134-.71468,3.43467-2.144,4.48-1.40801,1.04534-3.40268,1.568-5.984,1.568-.87467,0-1.68534-.064-2.432-.192-.72534-.10666-1.376-.23466-1.952-.384-.576-.17066-1.07733-.34133-1.504-.512-.40533-.192-.72533-.352-.96-.48l.928-2.56c.49067.27734 1.23733.58667 2.24.928s2.22933.512 3.68.512"/>
   <path d="m-451.17098,188.46035c0-1.47199.21333-2.75199.64-3.84 .42667-1.10932.992-2.02665 1.696-2.752s1.51466-1.26932 2.432-1.632 1.85599-.54398 2.816-.544c2.23999,2e-005 3.95732.70402 5.152,2.112 1.19465,1.38668 1.79199,3.50935 1.792,6.368-1e-005,.12801-1e-005,.29868 0,.512-1e-005,.19201-.0107.37334-.032.544h-11.392c.128,1.72801.62933,3.04001 1.504,3.936s2.23999,1.344 4.096,1.344c1.04532,0 1.91999-.0853 2.624-.256 .72532-.192 1.26932-.37333 1.632-.544l.416,2.496c-.36268.192-1.00268.39467-1.92.608-.89601.21334-1.92001.32-3.072.32-1.45067,0-2.70934-.21333-3.776-.64-1.04534-.448-1.90934-1.056-2.592-1.824s-1.19467-1.67466-1.536-2.72c-.32-1.06666-.48-2.22932-.48-3.488m11.424-1.632c.0213-1.34399-.32001-2.44265-1.024-3.296-.68268-.87465-1.63201-1.31198-2.848-1.312-.68267,2e-005-1.29067.13868-1.824.416-.51201.25602-.94934.59735-1.312,1.024s-.65067.91735-.864,1.472c-.192.55468-.32,1.12001-.384,1.696h8.256"/>
   <path d="m-426.73598,194.60435c.70399,0 1.32266-.0107 1.856-.032 .55466-.0427 1.01332-.10666 1.376-.192v-4.96c-.21334-.10666-.56534-.19199-1.056-.256-.46934-.0853-1.04534-.12799-1.728-.128-.44801,1e-005-.92801.032-1.44.096-.49067.064-.94934.20268-1.376.416-.40534.19201-.74667.46934-1.024.832-.27734.34134-.416.80001-.416,1.376 0,1.06667.34133,1.81334 1.024,2.24 .68266.40534 1.61066.608 2.784.608m-.256-14.912c1.19466,2e-005 2.19732.16002 3.008.48 .83199.29868 1.49332.73602 1.984,1.312 .51199.55468.87465,1.22668 1.088,2.016 .21332.76801.31999,1.62135.32,2.56v10.4c-.25601.0427-.61868.10667-1.088.192-.44801.064-.96001.128-1.536.192s-1.20534.11734-1.888.16c-.66134.064-1.32267.096-1.984.096-.93867,0-1.80267-.096-2.592-.288s-1.472-.49066-2.048-.896c-.576-.42666-1.024-.98133-1.344-1.664s-.48-1.50399-.48-2.464c0-.91733.18133-1.70666.544-2.368 .384-.66132.896-1.19466 1.536-1.6s1.38666-.70399 2.24-.896 1.74933-.28799 2.688-.288c.29866,1e-005 .60799.0214.928.064 .31999.0214.61866.064.896.128 .29866.0427.55466.0854.768.128s.36266.0747.448.096v-.832c-1e-005-.49065-.0533-.97065-.16-1.44-.10668-.49065-.29868-.91732-.576-1.28-.27734-.38398-.66134-.68265-1.152-.896-.46934-.23465-1.08801-.35198-1.856-.352-.98134,2e-005-1.84534.0747-2.592.224-.72534.12802-1.26934.26668-1.632.416l-.352-2.464c.384-.17065 1.024-.33065 1.92-.48 .896-.17065 1.86666-.25598 2.912-.256"/>
   <path d="m-409.53648,179.75635c.25599,2e-005 .54399.0214.864.064 .34132.0214.67199.064.992.128 .31999.0427.60799.096.864.16 .27732.0427.47999.0854.608.128l-.512,2.592c-.23468-.0853-.62934-.18132-1.184-.288-.53334-.12798-1.22667-.19198-2.08-.192-.55467,2e-005-1.10934.064-1.664.192-.53334.10668-.88534.18135-1.056.224v13.984h-2.976v-15.936c.704-.25598 1.57866-.49065 2.624-.704 1.04533-.23465 2.21866-.35198 3.52-.352"/>
   <path d="m-396.07348,197.13235c-1.34401,0-2.52801-.21333-3.552-.64-1.00267-.42666-1.856-1.024-2.56-1.792-.68267-.768-1.19467-1.67466-1.536-2.72-.34133-1.06666-.512-2.23999-.512-3.52s.18133-2.45332.544-3.52c.384-1.06665.91733-1.98398 1.6-2.752 .68266-.78932 1.51466-1.39732 2.496-1.824 1.00266-.44798 2.11199-.67198 3.328-.672 .74666,2e-005 1.49332.064 2.24.192s1.46132.33069 2.144.608l-.672,2.528c-.44801-.21332-.97068-.38398-1.568-.512-.57601-.12798-1.19468-.19198-1.856-.192-1.66401,2e-005-2.94401.52268-3.84,1.568-.87467,1.04535-1.312,2.57068-1.312,4.576 0,.89601.096,1.71734.288,2.464 .21333.74667.53333,1.38667.96,1.92 .448.53334 1.01333.94934 1.696,1.248 .68266.27734 1.51466.416 2.496.416 .78932,0 1.50399-.0747 2.144-.224s1.14132-.30933 1.504-.48l.416,2.496c-.17068.10667-.41601.21334-.736.32-.32001.0853-.68268.16-1.088.224-.40534.0853-.84268.14934-1.312.192-.44801.064-.88534.096-1.312.096"/>
   <path d="m-388.43048,196.74835v-24.32l2.976-.512v8.512c.55466-.21331 1.14133-.37331 1.76-.48 .63999-.12798 1.26933-.19198 1.888-.192 1.32266,2e-005 2.42132.19202 3.296.576 .87465.36268 1.56799.88535 2.08,1.568 .53332.66135.90665,1.46135 1.12,2.4s.31999,1.97335.32,3.104v9.344h-2.976v-8.704c-1e-005-1.02399-.0747-1.89865-.224-2.624-.12801-.72532-.35201-1.31199-.672-1.76s-.74668-.76798-1.28-.96c-.53334-.21332-1.19467-.31998-1.984-.32-.32001,2e-005-.65067.0214-.992.064s-.67201.096-.992.16c-.29867.0427-.576.096-.832.16-.23467.064-.40534.11735-.512.16v13.824h-2.976"/>
   <path d="m-310.92 174.57v2.688h-6.976v19.488h-3.104v-19.488h-6.976v-2.688h17.056"/>
   <path d="m-310.54598,188.46035c0-1.47199.21333-2.75199.64-3.84 .42667-1.10932.992-2.02665 1.696-2.752s1.51466-1.26932 2.432-1.632 1.85599-.54398 2.816-.544c2.23999,2e-005 3.95732.70402 5.152,2.112 1.19465,1.38668 1.79199,3.50935 1.792,6.368-1e-005,.12801-1e-005,.29868 0,.512-1e-005,.19201-.0107.37334-.032.544h-11.392c.128,1.72801.62933,3.04001 1.504,3.936s2.23999,1.344 4.096,1.344c1.04532,0 1.91999-.0853 2.624-.256 .72532-.192 1.26932-.37333 1.632-.544l.416,2.496c-.36268.192-1.00268.39467-1.92.608-.89601.21334-1.92001.32-3.072.32-1.45067,0-2.70934-.21333-3.776-.64-1.04534-.448-1.90934-1.056-2.592-1.824s-1.19467-1.67466-1.536-2.72c-.32-1.06666-.48-2.22932-.48-3.488m11.424-1.632c.0213-1.34399-.32001-2.44265-1.024-3.296-.68268-.87465-1.63201-1.31198-2.848-1.312-.68267,2e-005-1.29067.13868-1.824.416-.51201.25602-.94934.59735-1.312,1.024s-.65067.91735-.864,1.472c-.192.55468-.32,1.12001-.384,1.696h8.256"/>
   <path d="m-285.59898,179.75635c.25599,2e-005 .54399.0214.864.064 .34132.0214.67199.064.992.128 .31999.0427.60799.096.864.16 .27732.0427.47999.0854.608.128l-.512,2.592c-.23468-.0853-.62934-.18132-1.184-.288-.53334-.12798-1.22667-.19198-2.08-.192-.55467,2e-005-1.10934.064-1.664.192-.53334.10668-.88534.18135-1.056.224v13.984h-2.976v-15.936c.704-.25598 1.57866-.49065 2.624-.704 1.04533-.23465 2.21866-.35198 3.52-.352"/>
   <path d="m-279.36798,180.58835c.68266-.17065 1.57866-.35198 2.688-.544 1.13066-.19198 2.43199-.28798 3.904-.288 1.06666,2e-005 1.96266.14935 2.688.448 .72532.27735 1.33332.69335 1.824,1.248 .14932-.10665.38399-.25598.704-.448s.71465-.37332 1.184-.544c.46932-.19198.99198-.35198 1.568-.48 .57598-.14931 1.19465-.22398 1.856-.224 1.27998,2e-005 2.32531.19202 3.136.576 .81065.36268 1.43998.88535 1.888,1.568 .46931.68268.77864,1.49335.928,2.432 .17064.93868.25598,1.96268.256,3.072v9.344h-2.976v-8.704c-2e-005-.98132-.0533-1.82399-.16-2.528-.0854-.70399-.26669-1.29065-.544-1.76-.25602-.46932-.61869-.81065-1.088-1.024-.44802-.23465-1.03468-.35198-1.76-.352-1.00268,2e-005-1.83468.13868-2.496.416-.64001.25602-1.07735.49068-1.312.704 .17065.55468.29865,1.16268.384,1.824s.12799,1.35468.128,2.08v9.344h-2.976v-8.704c-1e-005-.98132-.0533-1.82399-.16-2.528s-.29868-1.29065-.576-1.76c-.25601-.46932-.61868-.81065-1.088-1.024-.44801-.23465-1.02401-.35198-1.728-.352-.29867,2e-005-.61867.0107-.96.032s-.67201.0533-.992.096c-.29867.0213-.576.0533-.832.096s-.42667.0747-.512.096v14.048h-2.976v-16.16"/>
   <path d="m-248.82948,196.74835h-2.976v-16.64h2.976v16.64m-1.504-19.648c-.53334,2e-005-.992-.17064-1.376-.512-.36267-.36264-.544-.84264-.544-1.44s.18133-1.06664.544-1.408c.384-.36264.84266-.54397 1.376-.544s.98133.18136 1.344.544c.384.34136.576.81069.576,1.408s-.192,1.07736-.576,1.44c-.36267.34136-.81067.51202-1.344.512"/>
   <path d="m-243.68048,180.58835c.68266-.17065 1.58933-.35198 2.72-.544s2.43199-.28798 3.904-.288c1.32266,2e-005 2.42132.19202 3.296.576 .87465.36268 1.56799.88535 2.08,1.568 .53332.66135.90665,1.46135 1.12,2.4s.31999,1.97335.32,3.104v9.344h-2.976v-8.704c-1e-005-1.02399-.0747-1.89865-.224-2.624-.12801-.72532-.35201-1.31199-.672-1.76s-.74668-.76798-1.28-.96c-.53334-.21332-1.19467-.31998-1.984-.32-.32001,2e-005-.65067.0107-.992.032s-.67201.0533-.992.096c-.29867.0213-.576.0533-.832.096-.23467.0427-.40534.0747-.512.096v14.048h-2.976v-16.16"/>
   <path d="m-219.67348,194.60435c.70399,0 1.32266-.0107 1.856-.032 .55466-.0427 1.01332-.10666 1.376-.192v-4.96c-.21334-.10666-.56534-.19199-1.056-.256-.46934-.0853-1.04534-.12799-1.728-.128-.44801,1e-005-.92801.032-1.44.096-.49067.064-.94934.20268-1.376.416-.40534.19201-.74667.46934-1.024.832-.27734.34134-.416.80001-.416,1.376 0,1.06667.34133,1.81334 1.024,2.24 .68266.40534 1.61066.608 2.784.608m-.256-14.912c1.19466,2e-005 2.19732.16002 3.008.48 .83199.29868 1.49332.73602 1.984,1.312 .51199.55468.87465,1.22668 1.088,2.016 .21332.76801.31999,1.62135.32,2.56v10.4c-.25601.0427-.61868.10667-1.088.192-.44801.064-.96001.128-1.536.192s-1.20534.11734-1.888.16c-.66134.064-1.32267.096-1.984.096-.93867,0-1.80267-.096-2.592-.288s-1.472-.49066-2.048-.896c-.576-.42666-1.024-.98133-1.344-1.664s-.48-1.50399-.48-2.464c0-.91733.18133-1.70666.544-2.368 .384-.66132.896-1.19466 1.536-1.6s1.38666-.70399 2.24-.896 1.74933-.28799 2.688-.288c.29866,1e-005 .60799.0214.928.064 .31999.0214.61866.064.896.128 .29866.0427.55466.0854.768.128s.36266.0747.448.096v-.832c-1e-005-.49065-.0533-.97065-.16-1.44-.10668-.49065-.29868-.91732-.576-1.28-.27734-.38398-.66134-.68265-1.152-.896-.46934-.23465-1.08801-.35198-1.856-.352-.98134,2e-005-1.84534.0747-2.592.224-.72534.12802-1.26934.26668-1.632.416l-.352-2.464c.384-.17065 1.024-.33065 1.92-.48 .896-.17065 1.86666-.25598 2.912-.256"/>
   <path d="m-203.62598,197.06835c-1.83467-.0427-3.136-.43733-3.904-1.184s-1.152-1.90933-1.152-3.488v-19.968l2.976-.512v20c0,.49067.0427.89601.128,1.216s.224.57601.416.768 .448.34134.768.448c.31999.0853.71466.16 1.184.224l-.416,2.496"/>
   <path d="m-126.72 174.57h3.104v22.176h-3.104v-10.24h-10.848v10.24h-3.104v-22.176h3.104v9.248h10.848v-9.248"/>
   <path d="m-119.23348,188.46035c0-1.47199.21333-2.75199.64-3.84 .42667-1.10932.992-2.02665 1.696-2.752s1.51466-1.26932 2.432-1.632 1.85599-.54398 2.816-.544c2.23999,2e-005 3.95732.70402 5.152,2.112 1.19465,1.38668 1.79199,3.50935 1.792,6.368-1e-005,.12801-1e-005,.29868 0,.512-1e-005,.19201-.0107.37334-.032.544h-11.392c.128,1.72801.62933,3.04001 1.504,3.936s2.23999,1.344 4.096,1.344c1.04532,0 1.91999-.0853 2.624-.256 .72532-.192 1.26932-.37333 1.632-.544l.416,2.496c-.36268.192-1.00268.39467-1.92.608-.89601.21334-1.92001.32-3.072.32-1.45067,0-2.70934-.21333-3.776-.64-1.04534-.448-1.90934-1.056-2.592-1.824s-1.19467-1.67466-1.536-2.72c-.32-1.06666-.48-2.22932-.48-3.488m11.424-1.632c.0213-1.34399-.32001-2.44265-1.024-3.296-.68268-.87465-1.63201-1.31198-2.848-1.312-.68267,2e-005-1.29067.13868-1.824.416-.51201.25602-.94934.59735-1.312,1.024s-.65067.91735-.864,1.472c-.192.55468-.32,1.12001-.384,1.696h8.256"/>
   <path d="m-95.43848,197.06835c-1.83467-.0427-3.136-.43733-3.904-1.184s-1.152-1.90933-1.152-3.488v-19.968l2.976-.512v20c-5e-006,.49067.04266.89601.128,1.216s.224.57601.416.768 .44799.34134.768.448c.31999.0853.71466.16 1.184.224l-.416,2.496"/>
   <path d="m-80.12848,188.46035c-1.4e-005-1.94132-.48001-3.43465-1.44-4.48s-2.24001-1.56798-3.84-1.568c-.89601,2e-005-1.60001.032-2.112.096-.49067.064-.88534.13868-1.184.224v10.496c.36266.29867.88533.58667 1.568.864s1.42933.416 2.24.416c.85332,0 1.57866-.14933 2.176-.448 .61865-.31999 1.11999-.74666 1.504-1.28 .38399-.55466.66132-1.19466.832-1.92 .17065-.74666.25599-1.54666.256-2.4m3.104,0c-1.7e-005,1.25868-.17068,2.42134-.512,3.488-.32002,1.06667-.80002,1.984-1.44,2.752s-1.42935,1.36534-2.368,1.792c-.91734.42667-1.97334.64-3.168.64-.96001,0-1.81334-.128-2.56-.384-.72534-.256-1.26934-.50133-1.632-.736v6.656h-2.976v-22.048c.704-.17065 1.57866-.35198 2.624-.544 1.06666-.21331 2.29333-.31998 3.68-.32 1.27999,2e-005 2.43199.20269 3.456.608s1.89865.98135 2.624,1.728 1.27998,1.66402 1.664,2.752c.40532,1.06668.60798,2.27201.608,3.616"/>
  </g>
  <path d="m31.21 19.889c-8.6693 0-15.641 6.9826-15.641 15.652v9.2821h387.92v-9.2821c0-8.6693-6.9717-15.652-15.641-15.652h-356.64z" fill="url(#a)" stroke="#000" stroke-width="1.4659"/>
  <g transform="matrix(.38238 0 0 .3186 295.89 -10.355)" fill="#fff" font-family="Sans" font-size="36.512" letter-spacing="0" word-spacing="0">
   <path d="m-307.07 117.2v4.8561h-7.631v20.447h-5.6959v-20.447h-7.631v-4.8561h20.958"/>
   <path d="m-307.4344,133.04909c0-1.70388.25558-3.1887.76675-4.45446 .53551-1.29008 1.22924-2.3611 2.08119-3.21306s1.82559-1.49698 2.92096-1.93514c1.11969-.43812 2.26373-.6572 3.43213-.65722 2.72622,2e-005 4.88042.8398 6.46263,2.51933 1.58217,1.65523 2.37326,4.10153 2.37328,7.33892-2e-005,.31645-.0122.6694-.0365,1.05885-.0244.36513-.0487.69374-.073.98582h-12.34106c.1217,1.11971.64504,2.00817 1.57002,2.66538s2.16636.98583 3.72422.98583c.99798,0 1.97164-.0852 2.92096-.25559 .97364-.19472 1.76473-.42597 2.37329-.69373l.73024,4.41796c-.29212.14605-.68158.29209-1.16839.43814s-1.03452.26776-1.64304.36512c-.58421.12171-1.21708.21907-1.89863.2921s-1.36312.10953-2.04467.10954c-1.72824-1e-005-3.23741-.25559-4.52749-.76676-1.26576-.51116-2.3246-1.20489-3.17655-2.08118-.8276-.90063-1.44831-1.95948-1.86211-3.17655-.38946-1.21706-.58419-2.53149-.58419-3.9433m12.77921-2.08118c-.0244-.46248-.10955-.91279-.25559-1.35095-.12172-.43813-.32862-.82759-.6207-1.16838-.26777-.34077-.62072-.62069-1.05885-.83978-.41381-.21906-.93715-.32859-1.57002-.32861-.60854,2e-005-1.13188.10955-1.57001.32861-.43816.19475-.80328.4625-1.09536.80327s-.52335.74242-.69373,1.20489c-.14606.43816-.25559.88847-.32861,1.35095h7.19287"/>
   <path d="m-273.62484,128.11997c-.48684-.12169-1.05886-.2434-1.71606-.36512-.65723-.14603-1.36313-.21906-2.1177-.21907-.34079,1e-005-.75459.0365-1.24141.10953-.46249.0487-.81544.10955-1.05885.18256v14.67784h-5.44029v-18.18299c.97365-.34076 2.11769-.6572 3.43213-.94931 1.33877-.31642 2.82359-.47464 4.45447-.47466 .29208,2e-005 .64503.0244 1.05885.073 .41379.0244.82759.073 1.24141.14605 .41379.0487.82759.12173 1.24141.21907 .41378.0731.76673.17041 1.05884.2921l-.9128,4.49098"/>
   <path d="m-259.24367,132.31885c-1e-005-1.75256-.23125-2.99397-.69372-3.72422-.43816-.73023-1.20491-1.09535-2.30026-1.09537-.34079,2e-005-.69374.0244-1.05885.073-.36513.0244-.71808.0609-1.05885.10954v14.82388h-5.44029v-18.54811c.46248-.12169.99799-.2434 1.60653-.36512 .63287-.14603 1.29008-.26774 1.97165-.36512 .70589-.12169 1.42396-.20688 2.15421-.25559 .73023-.073 1.4483-.10951 2.15421-.10953 1.38744,2e-005 2.50714.18258 3.3591.54768 .87628.3408 1.59435.7546 2.15421,1.24141 .77891-.55984 1.66737-.99798 2.66538-1.31444 1.02232-.31641 1.95946-.47463 2.81143-.47465 1.53348,2e-005 2.78706.21909 3.76073.65721 .99797.41383 1.78907,1.01019 2.37329,1.78909s.98579,1.70391 1.20489,2.77492 .32858,2.26375.32861,3.57818v10.84407h-5.44029v-10.18686c-2e-005-1.75256-.23127-2.99397-.69373-3.72422-.43817-.73023-1.20492-1.09535-2.30026-1.09537-.29211,2e-005-.70592.073-1.24141.21908-.51118.14606-.93716.32862-1.27792.54768 .17037.55986.27991,1.15622.32861,1.78909 .0487.60854.073,1.26576.073,1.97165v10.47895h-5.4403v-10.18686"/>
   <path d="m-232.90652,142.50571h-5.44029v-19.20533h5.44029v19.20533m.51117-24.75516c-1e-005,.99802-.32861,1.78912-.98582,2.37329-.63288.55987-1.38747.83979-2.26375.83977s-1.64304-.2799-2.30025-.83977c-.63288-.58417-.94932-1.37527-.94932-2.37329s.31644-1.77689.94932-2.33676c.65721-.58417 1.42396-.87627 2.30025-.87629s1.63087.29212 2.26375.87629c.65721.55987.98581,1.33879.98582,2.33676"/>
   <path d="m-227.79 123.96c0.92497-0.26774 2.1177-0.51115 3.5782-0.73024 1.4605-0.2434 2.994-0.3651 4.6005-0.36512 1.6308 2e-5 2.9818 0.21909 4.0528 0.65721 1.0954 0.41383 1.9595 1.0102 2.5924 1.7891s1.0832 1.7039 1.351 2.7749 0.40161 2.2638 0.40163 3.5782v10.844h-5.4403v-10.187c-1e-5 -1.7526-0.23126-2.994-0.69373-3.7242s-1.3266-1.0954-2.5924-1.0954c-0.38947 2e-5 -0.80328 0.0244-1.2414 0.073-0.43815 0.0244-0.82761 0.0609-1.1684 0.10954v14.824h-5.4403v-18.548"/>
   <path d="m-198.91725,138.70846c.5355,0 1.04667-.0122 1.53351-.0365s.87628-.0609 1.16838-.10953v-4.12586c-.21908-.0487-.54769-.0974-.98582-.14605s-.83979-.073-1.2049-.073c-.51118,1e-005-.998.0365-1.46048.10953-.43815.0487-.82761.15823-1.16838.32861s-.60854.40164-.80327.69373-.2921.65722-.29209,1.09536c-1e-005,.85195.27991,1.44832.83977,1.78909 .58419.31644 1.37528.47466 2.37328.47466m-.43814-15.91925c1.60652,2e-005 2.94529.18258 4.01632.54768s1.92295.88848 2.55584,1.57002c.6572.68158 1.11969,1.50918 1.38746,2.48282s.40162,2.05686.40163,3.24957v11.31873c-.77894.17039-1.86213.36512-3.24957.58419-1.38747.24341-3.06702.36512-5.03866.36512-1.24141,0-2.37328-.10954-3.39561-.32861-.998-.21907-1.86212-.57202-2.59236-1.05885-.73024-.51116-1.29009-1.16838-1.67955-1.97165s-.58419-1.78908-.58419-2.95747c0-1.1197.21907-2.06901.65721-2.84794 .46249-.77891 1.07102-1.39962 1.8256-1.86211s1.6187-.79108 2.59236-.98583c.97364-.21906 1.98381-.32859 3.0305-.32861 .70589,2e-005 1.32659.0365 1.86211.10954 .55984.0487 1.01015.12172 1.35094.21907v-.51117c-1e-005-.92495-.27993-1.66736-.83977-2.22723s-1.53352-.83976-2.92096-.83978c-.92498,2e-005-1.83778.073-2.73841.21908-.90063.12172-1.67955.30428-2.33677.54768l-.69372-4.38145c.31643-.0973.70589-.19471 1.16838-.29209 .48682-.12169 1.01016-.21905 1.57002-.2921 .55984-.0973 1.14403-.17037 1.75257-.21907 .63287-.073 1.26575-.10952 1.89863-.10954"/>
   <path d="m-178.40719,142.87083c-1.58219-.0243-2.87228-.19473-3.87027-.51117-.97366-.31644-1.75258-.75458-2.33677-1.31443-.55986-.58419-.94932-1.27792-1.16839-2.08119-.19473-.8276-.2921-1.75257-.29209-2.77491v-21.14047l5.44029-.87628v20.92139c-1e-005,.48683.0365.92497.10954,1.31443s.20689.71807.40163.98582c.21906.26776.52333.48684.9128.65722s.91279.27993 1.57002.32861l-.76676,4.49098"/>
  </g>
  <g transform="matrix(.30747 0 0 .39621 295.89 -10.355)" fill="#fff" font-family="Sans" font-size="20.734" letter-spacing="0" word-spacing="0">
   <path d="m-888.16743,214.87263c.58054,1e-005 1.16108.1797 1.74164.53908s.87081.76716.87082,1.22329c-1e-005,.29028-.10368.53909-.31101.74642s-.44924.31101-.72568.31101c-.23499,0-.50453-.1244-.80862-.37321s-.57364-.3732-.80862-.37321c-.33175,1e-005-.73951.15205-1.22329.45614-.46998.29028-1.20257.84318-2.19779,1.65871v3.04787h2.882c.9261,0 1.38916.34557 1.38917,1.03669s-.46307,1.03669-1.38917,1.03669h-6.15794c-.91229,0-1.36844-.34556-1.36844-1.03669 0-.40085.11749-.67039.35248-.80862 .23498-.15204.57363-.22807 1.01596-.22807h1.20256v-4.91391h-.72569c-.91229,0-1.36843-.34556-1.36843-1.0367s.45614-1.03668 1.36843-1.03669h2.79907v1.3477c.82935-.62201 1.48592-1.04359 1.96971-1.26476s.9814-.33173 1.49284-.33174"/>
   <path d="m-878.68 214.85c1.4652 1e-5 2.7092 0.46998 3.7321 1.4099 1.0367 0.93994 1.555 2.0803 1.555 3.4211-2e-5 1.3546-0.51836 2.5019-1.555 3.4418-1.0367 0.92611-2.3015 1.3892-3.7943 1.3892s-2.7576-0.46305-3.7943-1.3892c-1.0367-0.93993-1.555-2.0872-1.555-3.4418 0-1.3684 0.51835-2.5157 1.555-3.4418s2.3222-1.3892 3.8565-1.3892m-0.0207 2.0734c-0.93994 0-1.7278 0.26263-2.3637 0.78788s-0.95376 1.1818-0.95375 1.9697c-1e-5 0.77407 0.311 1.4306 0.93302 1.9697 0.63583 0.52526 1.4168 0.78788 2.3429 0.78788s1.7002-0.26262 2.3222-0.78788c0.63583-0.53908 0.95374-1.1956 0.95375-1.9697s-0.31792-1.4237-0.95375-1.949c-0.62202-0.53907-1.3823-0.80861-2.2807-0.80861"/>
   <path d="m-866.25 214.85c1.4652 1e-5 2.7092 0.46998 3.7321 1.4099 1.0367 0.93994 1.555 2.0803 1.555 3.4211-1e-5 1.3546-0.51836 2.5019-1.555 3.4418-1.0367 0.92611-2.3015 1.3892-3.7943 1.3892s-2.7576-0.46305-3.7943-1.3892c-1.0367-0.93993-1.555-2.0872-1.555-3.4418 0-1.3684 0.51834-2.5157 1.555-3.4418s2.3222-1.3892 3.8565-1.3892m-0.0207 2.0734c-0.93994 0-1.7278 0.26263-2.3636 0.78788s-0.95376 1.1818-0.95376 1.9697c0 0.77407 0.311 1.4306 0.93302 1.9697 0.63584 0.52526 1.4168 0.78788 2.3429 0.78788s1.7002-0.26262 2.3222-0.78788c0.63583-0.53908 0.95375-1.1956 0.95376-1.9697s-0.31793-1.4237-0.95376-1.949c-0.62202-0.53907-1.3823-0.80861-2.2807-0.80861"/>
   <path d="m-855.66036,221.25864c0,.42851.11749.7326.35248.91229s.71185.26954 1.43063.26954c.53907,0 1.02977-.0484 1.4721-.14513 .45614-.0968.79479-.20043 1.01596-.31101 .23497-.1244.46305-.23498.68422-.33174 .23497-.0968.42848-.14514.58054-.14514 .27644,0 .51143.10367.70495.31101s.29026.45614.29028.74642c-2e-005,.38703-.2972.7395-.89156,1.05742-.58056.3041-1.23021.52526-1.94898.66348-.70496.15205-1.3477.22807-1.92824.22807-1.17493,0-2.10795-.25571-2.79907-.76715s-1.03669-1.20947-1.03669-2.09411v-4.45777h-.72568c-.91229,0-1.36844-.34556-1.36844-1.0367 0-.40084.11749-.67038.35248-.80862 .23498-.15203.57363-.22806 1.01596-.22807h.72568v-1.82457c0-.91228.34556-1.36842 1.03669-1.36844 .40085,2e-005 .67039.11751.80862.35248 .15204.23499.22807.57365.22807,1.01596v1.82457h3.75282c.44232,1e-005 .78097.076 1.01596.22807 .23497.13824.35247.40778.35248.80862-1e-005,.69114-.45616,1.0367-1.36844,1.0367h-3.75282v4.06382"/>
   <path d="m-841.40359,227.33365c-.71878,0-1.36152-.14513-1.92824-.43541s-1.01596-.65657-1.3477-1.09889-.6082-.96067-.82936-1.55503c-.22116-.58055-.37321-1.13345-.45614-1.65871-.0829-.53908-.1244-1.07125-.1244-1.59651v-3.50401c0-1.7831.43541-3.2552 1.30623-4.41631 .88464-1.16108 2.00426-1.74162 3.35888-1.74164 1.11962,2e-005 2.03882.37322 2.7576,1.11963s1.07815,1.69327 1.07816,2.84053v5.82621c.3179.13823.47686.38012.47687.72568-1e-005,.56673-.38013.85009-1.14036.85009h-.97449v-.0622c-.31792.0415-.546.0622-.68421.0622-.88465,0-1.64489-.31792-2.28072-.95376s-.95376-1.38225-.95376-2.23925c0-.96757.35938-1.77619 1.07816-2.42586 .73259-.66347 1.67943-1.03668 2.84053-1.11962v-.66349c-1e-005-.69111-.20734-1.25093-.62201-1.67944-.40086-.42848-.91921-.64273-1.55504-.64275-.87082,2e-005-1.59651.44234-2.17705,1.32697s-.87082,1.99045-.87082,3.31741v3.23448c0,.52526.0484,1.05051.14514,1.57577 .0968.51143.2488,1.02978.45614,1.55504 .22116.52525.54599.94684.97449,1.26476s.93993.47688 1.5343.47688c.46996,0 .87082-.0553 1.20256-.16587 .34556-.0968.58746-.21425.72569-.35248 .13822-.1244.27644-.24189.41468-.35247 .15203-.0968.29717-.14514.43541-.14514 .23497,0 .42849.0829.58054.24881 .16586.16586.2488.36629.24881.60128-1e-005,.48378-.36631.89846-1.09889,1.24403-.71878.35938-1.57578.53907-2.571.53907m2.17705-6.36528v-3.33814c-.69113.0691-1.24403.27645-1.6587.62201-.41469.33175-.62202.75333-.62202,1.26476 0,.42851.16587.78789.49761,1.07816 .33174.27646.74641.41468 1.24403.41468 .16587,0 .34556-.0138.53908-.0415"/>
   <path d="m-833.05596,212.2809c0-.40084.11749-.67038.35248-.80862 .23498-.15204.58054-.22806 1.03669-.22807h3.69062v10.86452h2.52953c.91227,0 1.36842.34557 1.36843,1.03669s-.45616,1.03669-1.36843,1.03669h-7.13244c-.91229,0-1.36843-.34556-1.36843-1.03669 0-.40085.11749-.67039.35247-.80862 .23498-.15204.57364-.22807 1.01596-.22807h2.52953v-8.79114h-1.61724c-.92612,1e-005-1.38917-.34555-1.38917-1.03669"/>
   <path d="m-813.01 222.11c0.91228 0 1.3684 0.34557 1.3684 1.0367s-0.45616 1.0367-1.3684 1.0367h-7.1324c-0.91229 0-1.3684-0.34556-1.3684-1.0367-1e-5 -0.40085 0.11749-0.67039 0.35247-0.80862 0.23498-0.15204 0.57363-0.22807 1.016-0.22807h2.5295v-4.9139h-1.6172c-0.92612 0-1.3892-0.34556-1.3892-1.0367 0-0.41466 0.11749-0.69111 0.35247-0.82935 0.24881-0.13822 0.59437-0.20733 1.0367-0.20734h3.6906v6.9873h2.5295m-2.8198-10.844v2.177h-2.4466v-2.177h2.4466"/>
   <path d="m-808.52 224.18c-0.91229 0-1.3684-0.34556-1.3684-1.0367s0.45614-1.0367 1.3684-1.0367h0.1244v-4.9139c-0.84318-0.0276-1.2648-0.37321-1.2648-1.0367 0-0.69111 0.46305-1.0367 1.3892-1.0367h1.949v0.99523c0.49761-0.46996 0.95375-0.79479 1.3684-0.97449 0.41467-0.19351 0.90537-0.29027 1.4721-0.29028 1.0782 1e-5 1.9628 0.30411 2.6539 0.91229s1.0367 1.4652 1.0367 2.571v3.7736c0.84316 0 1.2648 0.34557 1.2648 1.0367s-0.45615 1.0367-1.3684 1.0367h-1.8453c-0.92612 0-1.3892-0.34556-1.3892-1.0367s0.42158-1.0367 1.2648-1.0367v-3.6906c-1e-5 -0.99522-0.62203-1.4928-1.866-1.4928-0.48379 0-0.9192 0.10367-1.3062 0.311-0.37321 0.20735-0.80171 0.57364-1.2855 1.0989v3.7736h0.12441c0.91228 0 1.3684 0.34557 1.3684 1.0367s-0.45615 1.0367-1.3684 1.0367h-2.3222"/>
   <path d="m-790.36858,217.19482c-.41468,0-.71187-.10367-.89155-.31101-.1797-.22116-.26955-.46305-.26954-.72569-1e-005-.69111.45613-1.03668 1.36843-1.03669h2.79907v6.9873c.84316,0 1.26475.34557 1.26476,1.03669s-.45616,1.03669-1.36843,1.03669h-1.96972v-.99522c-.51144.48379-.97449.81553-1.38916.99522-.40086.1797-.88465.26954-1.45137.26954-1.09199,0-1.98354-.30409-2.67466-.91228-.67731-.62202-1.01596-1.48593-1.01596-2.59173v-3.75282h-.55981c-.34557,0-.62202-.0968-.82936-.29028s-.311-.44231-.311-.74642c0-.40084.11749-.67038.35247-.80862 .23498-.15203.57364-.22806 1.01596-.22807h2.40512v5.76401c0,.99522.60819,1.49283 1.82458,1.49283 .52525,0 .96066-.0898 1.30623-.26954 .34555-.19351.78788-.57363 1.32696-1.14036v-3.77355h-.72568-.20734"/>
   <path d="m-781.4 215.12c0.91228 1e-5 1.3684 0.33866 1.3684 1.016 0 0.40086-0.1797 0.71878-0.53908 0.95376l1.2648 1.016 1.2648-1.0367c-0.35939-0.2488-0.53909-0.54598-0.53908-0.89155-1e-5 -0.70494 0.45614-1.0574 1.3684-1.0574h1.8868c0.9261 1e-5 1.3892 0.34558 1.3892 1.0367-1e-5 0.62203-0.36631 0.96759-1.0989 1.0367l-2.7369 2.2807 3.1515 2.6332c0.74641 0.0415 1.1196 0.38703 1.1196 1.0367-1e-5 0.69113-0.45616 1.0367-1.3684 1.0367h-2.3222c-0.92612 0-1.3892-0.35247-1.3892-1.0574-1e-5 -0.52526 0.27644-0.86391 0.82935-1.016l-1.555-1.2648-1.5136 1.2648c0.52525 0.22116 0.78788 0.55982 0.78788 1.016 0 0.70495-0.45615 1.0574-1.3684 1.0574h-2.3014c-0.91229 0-1.3684-0.34556-1.3684-1.0367 0-0.64966 0.37321-0.99522 1.1196-1.0367l3.0064-2.6539-2.6539-2.26c-0.71878-0.0691-1.0782-0.41467-1.0782-1.0367 0-0.69111 0.45614-1.0367 1.3684-1.0367h1.9075"/>
   <path d="m-766.66529,224.49312h-.3732c-.37322,0-.69805-.13131-.97449-.39394-.26264-.27645-.39395-.60128-.39395-.97449s.13131-.69113.39395-.95376c.27644-.27645.60127-.41467.97449-.41467h.3732c.38703,0 .71186.13131.97449.39394s.39394.58746.39395.97449-.13132.71186-.39395.97449-.58746.39394-.97449.39394m0-6.61409h-.3732c-.37322,1e-005-.69805-.13131-.97449-.39394-.26264-.27645-.39395-.60128-.39395-.97449 0-.38702.13131-.71185.39395-.97449 .27644-.27644.60127-.41467.97449-.41468h.3732c.38703,1e-005 .71186.13824.97449.41468 .26263.26264.39394.58747.39395.97449s-.13132.71187-.39395.97449-.58746.39395-.97449.39394"/>
   <path d="m-759.35435,218.95719c0-.41467.32483-.97448.97449-1.67944 .66348-.71876 1.38225-1.07815 2.15632-1.07816 .52525,1e-005 1.03668.1797 1.5343.53908 .49761.34557.9261.69114 1.2855,1.03669s.63583.51835.82935.51835c.15204,0 .30409-.0829.45614-.24881 .16587-.17969.311-.3732.43542-.58055s.28335-.39393.47687-.55981c.20733-.17968.4354-.26953.68422-.26954 .27644,1e-005 .51833.10368.72568.31101s.311.44924.31101.72568c-1e-005,.38704-.33175.95376-.99522,1.70018-.6635.7326-1.34771,1.09889-2.05265,1.09889-.4838,0-.98832-.17278-1.51357-.51835-.52526-.35938-.98141-.71185-1.36843-1.05742-.38704-.35938-.66349-.53908-.82936-.53908-.15205,0-.34556.13823-.58054.41468-.22117.27645-.46306.5529-.72569.82935s-.51143.41468-.74641.41468c-.27646,0-.52526-.10367-.74642-.31101-.20734-.22116-.31101-.46996-.31101-.74642"/>
   <path d="m-741.94603,210.00018c.6773,1e-005 1.01595.45616 1.01596,1.36843v.53908c.46996.0968.77406.16588.91229.20734l.29027.10367c.0138.0138.076.0346.18661.0622 .20733-.0968.40084-.14513.58054-.14514 .69112,1e-005 1.03668.45616 1.03669,1.36843v.66349c-1e-005,.44233-.076.78098-.22807,1.01595-.13823.235-.40777.35249-.80862.35248-.59437,1e-005-.95376-.29027-1.07816-.87082-.0277-.19351-.22116-.36629-.58054-.51835-.34557-.15203-.7326-.22806-1.1611-.22807-.62202,1e-005-1.11963.1175-1.49283.35248s-.55982.546-.55981.93302c-1e-005,.56673.51834.95376 1.55503,1.16109l1.3477.29028c.31791.0691.56672.13132.74642.1866 .17968.0415.46305.15206.85008.33174 .40085.16588.71186.35939.93303.58055 .22115.20734.42849.51835.62201.93302 .19351.40086.29026.857.29028,1.36843-2e-005,.89847-.30411,1.66562-.91229,2.30146s-1.45138,1.05742-2.52953,1.26476v1.72091c-1e-005,.44232-.076.78097-.22807,1.01596-.13823.2488-.40086.3732-.78789.3732-.41468,0-.69113-.1244-.82935-.3732-.13823-.23499-.20734-.57364-.20734-1.01596v-1.72091c-.59437-.1244-1.14036-.29718-1.63797-.51835-.29028.24881-.55982.37321-.80862.37321-.70495,0-1.05743-.46305-1.05742-1.38916v-1.26477c-1e-005-.9261.34556-1.38916 1.03669-1.38916 .11057,0 .20733.0138.29027.0415 .0968.0276.17278.0553.22807.0829 .0691.0276.13131.076.18661.14514 .0553.0553.0968.10367.1244.14513 .0415.0415.076.10368.10367.18661 .0276.0691.0484.12441.0622.16587 .0138.0276.0276.076.0415.14514l.0207.10367c.0829.31792.35938.59437.82935.82935 .48379.22116 1.00905.33174 1.57578.33174 .67729,0 1.23711-.15205 1.67944-.45614s.66347-.67731.66348-1.11963c-1e-005-.35938-.13133-.64274-.39395-.85009-.26263-.22115-.68422-.38702-1.26476-.49761l-1.5343-.31101c-2.10103-.42849-3.15154-1.49974-3.15154-3.21374 0-.81552.27645-1.52047.82935-2.11485 .56672-.60818 1.2924-.9883 2.17705-1.14036v-.53908c0-.44231.0691-.78096.20734-1.01596 .15204-.23497.42849-.35246.82935-.35247"/>
  </g>
  <g transform="matrix(0 .40758 -.45056 0 455.09 210.96)">
   <path d="m276.92 178.3c8.7044 0 15.712 7.0075 15.712 15.712v699.4c0 8.7044-7.0075 15.712-15.712 15.712s-15.712-7.0075-15.712-15.712v-699.4c0-8.7044 7.0075-15.712 15.712-15.712z" fill="#666"/>
   <path d="m276.92 286.32c6.5283 0 11.784 5.2373 11.784 11.743v522.73c0 6.5056-5.2556 11.743-11.784 11.743s-11.784-5.2373-11.784-11.743v-522.73c0-6.5056 5.2556-11.743 11.784-11.743z" fill="#333"/>
   <g transform="matrix(.80413 0 0 1.5915 -172.25 -218.5)" fill="#666" font-family="Sans" font-size="40" letter-spacing="0" word-spacing="0">
    <path d="m546.3 474.46h25.039v3.2812h-25.039v-3.2812m0 7.9688h25.039v3.3203h-25.039v-3.3203"/>
    <path d="m546.3 488.87h25.039v3.2812h-25.039v-3.2812m0 7.9688h25.039v3.3203h-25.039v-3.3203"/>
   </g>
   <g transform="scale(-1)" fill="#333" font-family="Sans" font-size="40" letter-spacing="0" word-spacing="0">
    <path d="m-279.43-188.67-11.133-29.16h4.1211l9.2383 24.551 9.2578-24.551h4.1016l-11.113 29.16h-4.4727"/>
   </g>
   <g transform="scale(-1,1)" fill="#333" font-family="Sans" font-size="40" letter-spacing="0" word-spacing="0">
    <path d="m-277.68 899.51-11.133-29.16h4.1211l9.2383 24.551 9.2578-24.551h4.1016l-11.113 29.16h-4.4726"/>
   </g>
  </g>
 </g>
</svg>
