<?xml version="1.0" encoding="UTF-8"?>
<svg viewBox="0 0 625 750" xmlns="http://www.w3.org/2000/svg" xmlns:xlink="http://www.w3.org/1999/xlink">
 <defs>
  <linearGradient id="a">
   <stop stop-color="#fff" stop-opacity=".65" offset="0"/>
   <stop stop-color="#fff" stop-opacity="0" offset="1"/>
  </linearGradient>
  <linearGradient id="c">
   <stop stop-color="#ffa63f" offset="0"/>
   <stop stop-color="#ff0" offset="1"/>
  </linearGradient>
  <linearGradient id="b">
   <stop stop-color="#ffeed7" offset="0"/>
   <stop stop-color="#bdbfc2" offset="1"/>
  </linearGradient>
  <linearGradient id="d">
   <stop stop-color="#fff" stop-opacity=".8" offset="0"/>
   <stop stop-color="#fff" stop-opacity="0" offset="1"/>
  </linearGradient>
  <linearGradient id="y" x1="400.58" x2="400.84" y1="369.53" y2="304.08" gradientTransform="scale(.57526 1.7383)" gradientUnits="userSpaceOnUse" xlink:href="#b"/>
  <linearGradient id="x" x1="303.02" x2="297.09" y1="237.93" y2="330.1" gradientTransform="scale(1.1161 .896)" gradientUnits="userSpaceOnUse" xlink:href="#d"/>
  <linearGradient id="w" x1="378.94" x2="380.27" y1="278.6" y2="243.92" gradientTransform="scale(.8165 1.2247)" gradientUnits="userSpaceOnUse" xlink:href="#b"/>
  <linearGradient id="v" x1="381.39" x2="380.55" y1="277.5" y2="245.68" gradientTransform="scale(.8165 1.2247)" gradientUnits="userSpaceOnUse" xlink:href="#b"/>
  <linearGradient id="u" x1="379.1" x2="376.8" y1="240.93" y2="281.02" gradientTransform="scale(.8165 1.2247)" gradientUnits="userSpaceOnUse" xlink:href="#a"/>
  <linearGradient id="t" x1="389.64" x2="387.07" y1="242.28" y2="281.33" gradientTransform="scale(.8165 1.2247)" gradientUnits="userSpaceOnUse" xlink:href="#a"/>
  <linearGradient id="s" x2="0" y1="650.63" y2="484.84" gradientUnits="userSpaceOnUse" xlink:href="#b" spreadMethod="reflect"/>
  <linearGradient id="r" x1="375.17" x2="377.49" y1="419.78" y2="324.04" gradientTransform="scale(.64978 1.539)" gradientUnits="userSpaceOnUse" xlink:href="#b"/>
  <linearGradient id="q" x1="320.75" x2="321.32" y1="498.18" y2="614.5" gradientTransform="scale(1.0748,.93041)" gradientUnits="userSpaceOnUse" xlink:href="#d"/>
  <linearGradient id="p" x1="322.48" x2="323.25" y1="435.27" y2="488.48" gradientTransform="scale(1.077,.9285)" gradientUnits="userSpaceOnUse" xlink:href="#a"/>
  <linearGradient id="o" x2="0" y1="424.94" y2="579.75" gradientUnits="userSpaceOnUse" xlink:href="#a"/>
  <linearGradient id="n" x1="496.7" x2="496.69" y1="409.9" y2="549.78" gradientUnits="userSpaceOnUse" xlink:href="#a"/>
  <linearGradient id="m" x1="238.97" x2="214.96" y1="649.63" y2="729.02" gradientUnits="userSpaceOnUse" xlink:href="#c"/>
  <linearGradient id="l" x1="381.57" x2="279.64" y1="655.73" y2="386.67" gradientTransform="scale(1.0655,.93853)" gradientUnits="userSpaceOnUse" xlink:href="#b"/>
  <linearGradient id="k" x1="220.27" x2="205.13" y1="624.16" y2="730.66" gradientUnits="userSpaceOnUse" xlink:href="#c"/>
  <linearGradient id="j" x1="118.8" x2="183.65" y1="582.73" y2="699.33" gradientUnits="userSpaceOnUse" xlink:href="#a"/>
  <linearGradient id="i" x1="222.99" x2="230.42" y1="570.7" y2="711.33" gradientUnits="userSpaceOnUse" xlink:href="#a"/>
  <linearGradient id="h" x1="316.94" x2="371.61" y1="474.02" y2="582.64" gradientTransform="scale(1.0655,.93853)" gradientUnits="userSpaceOnUse" xlink:href="#a"/>
  <linearGradient id="g" x1="284.69" x2="285.46" y1="410.46" y2="485.7" gradientTransform="scale(1.2187 .82056)" gradientUnits="userSpaceOnUse" xlink:href="#c"/>
  <linearGradient id="f" x1="288.82" x2="288.38" y1="398.85" y2="482.56" gradientTransform="scale(1.2219 .81837)" gradientUnits="userSpaceOnUse" xlink:href="#a"/>
  <radialGradient id="e" cx="466.99" cy="1166.6" r="203.9" gradientUnits="userSpaceOnUse">
   <stop stop-color="#3f2600" stop-opacity=".6" offset="0"/>
   <stop stop-color="#3f2600" stop-opacity="0" offset="1"/>
  </radialGradient>
 </defs>
 <path transform="matrix(1.4177 0 0 .41474 -349.55 157.94)" d="m670.88 1166.6a203.9 186.63 0 1 1 -407.79 0 203.9 186.63 0 1 1 407.79 0z" fill="url(#e)"/>
 <path transform="matrix(1.25 0 0 1.25 -125.3 -231.76)" d="m223.63 632.24c-22.388-32.223-26.754-136.98 25.487-201.43 25.886-30.918 32.49-52.465 34.531-81.393 1.389-32.979-23.325-131.44 69.883-138.94 94.406-7.532 89.336 85.66 88.793 134.98-0.451 41.64 30.574 65.241 51.796 97.695 39.279 59.63 35.957 162.3-7.399 217.87-54.917 69.568-101.95 39.398-133.19 41.93-58.493 3.202-60.427 34.391-129.9-70.705z"/>
 <path transform="matrix(-1.6774 -.02245 -.02112 1.4709 862.83 -357.27)" d="m246.57 470.86c-12.239 12.496-44.396 69.092 4.869 105.36 17.369 12.633-16.377 59.495-32.005 36.308-27.57-41.618-8.831-106.94 8.315-130.19 11.652-16.487 29.23-22.676 18.821-11.48z" fill="url(#y)"/>
 <path transform="matrix(-1.6776 0 0 1.5237 863.87 -382.33)" d="m256.51 459.84c-19.915 17.717-56.176 80.091-3.288 120.61 17.37 12.632-15.393 52.463-33.79 32.089-63.963-70.82 1.669-152.25 24.262-180.25 20.192-24.347 38.078 5.752 12.816 27.555z" stroke="#000" stroke-width=".9773"/>
 <path transform="matrix(1.2663 -.07137 -.04598 1.1957 -108.61 -190.01)" d="m399.57 258.16a58.373 46.863 0 1 1 -116.75 0 58.373 46.863 0 1 1 116.75 0z" fill="url(#x)"/>
 <path transform="matrix(1.3044 -.07553 .07713 1.3426 -166 -241.87)" d="m328.86 320.64a18.087 27.131 0 1 1 -36.175 0 18.087 27.131 0 1 1 36.175 0z" fill="url(#w)"/>
 <path transform="matrix(-1.8108 .04951 .03173 1.5533 896.71 -349.03)" d="m328.86 320.64a18.087 27.131 0 1 1 -36.175 0 18.087 27.131 0 1 1 36.175 0z" fill="url(#v)"/>
 <path transform="matrix(-.8232 -.00176 -.01823 .85266 602.92 -102.24)" d="m328.86 320.64a18.087 27.131 0 1 1 -36.175 0 18.087 27.131 0 1 1 36.175 0z"/>
 <path transform="matrix(.59438 -.0723 .06882 .70584 56.696 -31.834)" d="m328.86 320.64a18.087 27.131 0 1 1 -36.175 0 18.087 27.131 0 1 1 36.175 0z"/>
 <path transform="matrix(-.48032 -.03645 -.04679 .47561 502.74 22.76)" d="m328.86 320.64a18.087 27.131 0 1 1 -36.175 0 18.087 27.131 0 1 1 36.175 0z" fill="url(#u)"/>
 <path transform="matrix(.35691 -.04082 .04132 .39854 138.58 50.738)" d="m328.86 320.64a18.087 27.131 0 1 1 -36.175 0 18.087 27.131 0 1 1 36.175 0z" fill="url(#t)"/>
 <path transform="matrix(1.25 0 0 1.25 -125.3 -232.48)" d="m258.7 495.42c12.836-29.103 40.114-80.226 40.695-119.76 0-31.442 94.179-38.951 101.74-7.558s26.741 78.483 38.95 101.16 47.809 94.695 9.884 157.55c-34.157 55.644-137.72 99.666-193.01-7.557-18.603-37.207-15.285-83.315 1.744-123.83z" fill="url(#s)"/>
 <path transform="matrix(1.3894 -.11107 .10221 1.3021 -202.34 -230.19)" d="m242.9 473.82c-11.263 18.967-35.5 69.309 12.137 102.05 51.311 34.82 46.473 97.062-15.607 61.955-56.777-31.789-22.845-137.78-4.51-162.27 12.107-17.214 29.897-38.031 7.98-1.736z" fill="url(#r)"/>
 <path transform="matrix(1.25 0 0 1.25 -125.3 -231.76)" d="m256.51 449.72c-17.465 28.508-59.377 95.813-3.288 130.72 75.569 46.355 54.173 92.711-14.799 50.974-97.109-58.264-11.825-175.62 27.131-220.34 44.444-50.2 8.554 9.087-9.044 38.641z" stroke="#000" stroke-width="1.25"/>
 <path transform="matrix(1.3021 0 0 1.2252 -140.71 -217.81)" d="m421.48 504.73c0 32.412-29.272 74.516-79.528 74.138-51.828 0.455-73.949-41.726-73.949-74.138s34.379-58.717 76.739-58.717 76.738 26.305 76.738 58.717z" fill="url(#q)"/>
 <path transform="matrix(1.1868 0 0 1.0671 -100.13 -164.33)" d="m398.23 412.29c-0.612 38.572-23.18 47.671-51.74 47.671s-49.292-5.694-51.741-47.671c0-26.314 23.18-41.542 51.741-41.542s51.74 15.228 51.74 41.542z" fill="url(#p)"/>
 <path transform="matrix(1.25 0 0 1.25 -125.3 -231.76)" d="m234.28 456.48c17.716-26.996 55.015-68.364 6.977 5.813-38.951 61.043-14.403 100.27-1.744 111.04 36.527 32.562 34.966 54.349 6.395 37.206-61.625-36.626-48.835-98.248-11.628-154.06z" fill="url(#o)"/>
 <path transform="matrix(1.25 0 0 1.25 -125.3 -231.76)" d="m490.66 467.52c-15.319-31.701-64.134-111.9 2.326-18.603 60.461 84.297 18.022 143.01 10.464 148.83s-33.137 17.44-25.579-2.907 45.234-58.973 12.789-127.32z" fill="url(#n)"/>
 <path transform="matrix(1.25 0 0 1.25 -125.3 -231.76)" d="m220.92 716.92c-40.442-21.416-99.252 4.124-77.902-54.066 4.276-13.238-6.375-33.008 0.581-45.926 8.139-15.698 25.58-12.209 36.045-22.674 10.318-10.891 16.859-29.649 36.044-26.742 19.184 2.907 31.945 26.461 45.344 55.229 9.883 20.638 44.941 49.664 42.65 72.758-2.696 35.5-43.027 42.19-82.762 21.421z" fill="url(#m)" stroke="#e68c3f" stroke-width="6.25"/>
 <path transform="matrix(.59821 .26858 -.23962 .61721 389.82 76.211)" d="m415.07 495.76c-3.007 24.906-35.813 76.627-69.518 81.534-34.26 5.336-66.432-34.06-74.147-71.114-9.889-41.206 22.587-57.6 71.938-56.627 53.301 1.654 74.121 13.891 71.727 46.207z" fill="url(#l)"/>
 <path transform="matrix(-1.1685 .42314 .47528 1.1648 417.59 -278.07)" d="m220.27 718.4c-41.327-23.59-99.894 5.605-77.261-55.547 4.736-13.068-6.596-33.552 0.36-46.47 8.139-15.698 25.801-11.665 36.266-22.13 10.318-10.891 18.827-27.868 38.012-24.961 19.184 2.907 29.977 24.68 43.376 53.448 9.883 20.638 43.415 48.971 41.124 72.065-2.696 35.5-42.724 45.471-81.877 23.595z" fill="url(#k)" stroke="#e68c3f" stroke-width="6.2507"/>
 <path transform="matrix(-.9451 .34375 .42408 .95606 403.58 -128.59)" d="m216.48 675.68c-86.531-57.503-47.308-70.96-36.843-81.425 10.318-10.891 18.827-27.868 38.012-24.961 19.184 2.907 29.977 24.68 43.376 53.448 9.883 20.638 43.06 48.918 41.124 72.065-2.616 27.11-48.19 5.487-85.669-19.127z" fill="url(#j)"/>
 <path transform="matrix(1.0043 -.05229 -.0174 1.0458 -66.561 -92.718)" d="m216.51 677.07c-86.531-57.503-46.797-73.57-33.946-81.28 15.399-9.942 15.158-30.831 34.343-27.924 19.184 2.907 30.725 26.107 44.124 54.875 9.883 20.638 43.06 48.918 41.124 72.065-2.616 27.11-48.166 6.878-85.645-17.736z" fill="url(#i)"/>
 <path transform="matrix(.51558 .21526 -.20653 .49467 402.55 158.31)" d="m415.07 495.76c-3.007 24.906-35.813 76.627-69.518 81.534-34.26 5.336-66.432-34.06-74.147-71.114-9.889-41.206 22.587-57.6 71.938-56.627 53.301 1.654 74.121 13.891 71.727 46.207z"/>
 <path transform="matrix(.35123 .14946 -.12886 .34347 413.77 254.04)" d="m415.07 495.76c-3.007 24.906-35.813 76.627-69.518 81.534-34.26 5.336-66.432-34.06-74.147-71.114-9.889-41.206 22.587-57.6 71.938-56.627 53.301 1.654 74.121 13.891 71.727 46.207z" fill="url(#h)"/>
 <path transform="matrix(1.25 0 0 1.25 -125.3 -231.76)" d="m309.95 338.73c7.147-6.77 24.811-27.066 57.961-5.755 6.162 4.01 11.162 4.377 23.021 9.455 23.726 9.749 12.382 33.259-12.744 41.108-10.758 3.489-20.536 16.556-40.129 15.439-16.734-0.977-21.119-11.874-31.398-17.906-18.269-10.311-20.965-24.254-11.1-31.653s13.725-10.059 14.389-10.688z" fill="url(#g)" stroke="#e68c3f" stroke-width="3.75"/>
 <path transform="matrix(1.25 0 0 1.25 -125.3 -231.76)" d="m391.25 357.64c-9.883 0.581-31.393 22.091-54.066 22.091s-36.044-20.929-39.532-20.929" fill="none" stroke="#e68c3f" stroke-width="2.5"/>
 <path transform="matrix(.62789 0 0 .59567 81.614 -12.435)" d="m309.95 338.73c7.147-6.77 29.691-25.348 59.588-6.328 6.299 3.766 12.804 7.865 22.478 13.464 19.162 11.748 9.671 28.678-13.286 39.39-10.418 4.495-27.593 14.415-40.671 13.721-14.533-1.408-23.935-11.399-33.567-17.906-17.67-12.303-16.597-22.237-8.389-30.508 6.205-5.679 13.183-11.204 13.847-11.833z" fill="url(#f)"/>
</svg>
