<svg version="1" xmlns="http://www.w3.org/2000/svg" width="933.333" height="933.333" viewBox="0 0 700.000000 700.000000"><path d="M358.4 45c-4.7 1.5-5.9 3.6-8.4 14.5-2.6 11.8-6.8 25.6-8.1 27-.6.5-4.9 1-9.7 1.1-10.2.1-39.4 1.3-45.5 1.9-2.3.2-7.1.6-10.7.9-13.8 1.3-38.7 4.9-48.7 7.1-3.9.9-6.7 1.4-9.8 2.1-1.6.3-5 1.1-7.5 1.9-2.5.7-8.1 2.3-12.5 3.5-20.6 5.8-48.6 18.4-66.5 30.1-16.4 10.7-34.5 26.8-47.7 42.4-6.7 8-20 28-25.5 38.5-12.8 24.4-24.3 58.1-29.2 85.5-.3 1.6-1 5.5-1.6 8.5-.5 3-1.2 7.3-1.5 9.5-.4 2.2-.9 5.3-1.1 7-.5 3.1-1.1 8.1-2.2 20.5-1.1 11.5-.4 39.2 1.2 47.5.2 1.1.9 5.4 1.6 9.5 4.4 27.4 16.7 61.4 31.6 87 10.9 18.8 28.7 42.3 44.3 58.5 57.4 59.4 137.1 97.9 217.6 105.1 3.9.3 8.6.8 10.5 1 5.2.6 36.5.6 44.5 0 14.2-1.1 28.1-2.7 36-4.2 1.1-.2 4.5-.8 7.5-1.4 12.5-2.3 20.3-4.2 34.5-8.5 60.1-18.1 112.8-51.1 154-96.6 26.3-29 49.8-70.3 61.1-107.3 3.6-11.8 8-31.3 8.9-39.3.3-2.6.8-5.9 1-7.3 2.3-13.4 2.3-47 0-67-.2-1.9-.7-6-1-9-1.2-10.3-1.6-13.5-2-16-.3-1.4-.7-4.5-1-7-1.1-8.5-6.5-34.5-9.5-45.5-1.7-6.1-3.3-11.9-3.5-13-1.1-4.5-9-25.6-12.6-33.3-2.2-4.6-3.9-8.5-3.9-8.7 0-1.9-20.2-34.8-23-37.5-.3-.3-3-3.4-6-7-30.9-36.6-72.8-57.2-128.5-63.5-6.8-.8-27.5-1.8-35.5-1.8-11.5 0-41.1 1.2-44.1 1.8-1.1.2-6 .7-10.7 1-4.8.4-9.4.8-10.3 1.1-2.7.8-3-3.1-1.4-21.1 1.4-14.8 1.3-15.5-1.7-17.8-2.2-1.7-4.5-2.1-11.5-2.4-4.9-.1-10.2.2-11.9.7z"/></svg>