<svg version="1" xmlns="http://www.w3.org/2000/svg" width="1000" height="1000" viewBox="0 0 750.000000 750.000000"><path d="M367.2 32.5c-39.1 6.9-63.3 28.7-72.7 66-4.1 16.2-4.9 27.2-3.9 58.5 1.6 54.6 1 65.4-5.2 86.6-2.8 9.8-10.2 26.1-15.9 34.9-2.1 3.3-8.6 12.1-14.5 19.5-40 50.6-63.9 95.4-73.1 137.1-2 8.7-2.4 13.5-2.5 29.7-.1 19.1-.1 19.3-2.6 22-1.4 1.5-5.9 7.2-10.1 12.7-8.6 11.4-12 13.8-25.1 18.4-16 5.6-22.7 10.5-27.7 20.3-3.1 5.8-3.7 18.9-1.5 32.4 2.2 14.1 2 20.5-1 29.9-9 28.4-3.2 43.4 19.5 49.7 3.6 1 14 2.7 23.1 3.9 33.3 4 40.7 5.9 60.5 14.9 20.6 9.3 32.2 12.6 49 13.7 15.2.9 31.8-3.5 42-11.3 1.9-1.4 3.5-2.1 3.5-1.5 0 .7.4 1 .9.7.5-.3 3.3-.1 6.2.4 14.9 2.7 42 5 59.4 5s44.5-2.3 59.4-5c2.9-.5 5.7-.7 6.2-.4.5.3.9 0 .9-.5 0-.6.8-1.1 1.8-1.1s4.2-.6 7.1-1.4l5.4-1.4 2.6 3.2c11.3 13.7 25.4 20.6 42.1 20.6 11.2 0 20.3-2.3 31.5-7.9 13.2-6.6 21.3-12.9 33.6-26.1 13.1-14 21.9-20.2 47.6-33.3 23.4-12 29.4-16.1 33.8-23.1 2.6-4.3 3-5.8 2.9-11.5-.2-9.7-4.9-19.2-16-32.1-6.2-7.2-8.6-12.8-12.4-28.4-5-20.3-9.1-27.6-18.6-33.2-2.4-1.4-4.4-2.9-4.4-3.3 0-.3 1.1-5 2.5-10.3 3.3-13 4.6-29.5 3.4-43.5-1.8-23.1-7.8-43.2-20.4-68.8-12.4-25.3-24-42.7-50-75.1-26-32.4-35.1-47.6-40.7-68.3-1.9-6.8-2.2-11.8-2.8-47.1-.5-21.7-1.3-43.3-2-48-4.2-31.4-12-53-25.1-69.5-9.8-12.4-25.1-22-42.4-26.6-10.5-2.8-41.4-3.6-54.3-1.4zm32.6 8c8.8 1.8 16.2 4.6 23.2 8.7l5.5 3.3-48.5.5c-26.7.3-48.6.5-48.8.4-.7-.3 15.9-8.4 20.4-9.8 14.3-4.7 34.7-6 48.2-3.1zm19 85.4c8.5 4.3 15.8 14.3 18.8 25.6 2 7.4 1.8 21.1-.5 28.4-1.6 5.2-6.5 15.1-7.5 15.1s-14.2-5.3-14.9-5.9c-.4-.5.1-2.3 1.2-4.2 6.5-11.2 3.2-31.7-5.9-36.4-5.2-2.7-8.8-2-13.5 2.8-4.9 4.8-7.5 11.9-7.5 20.2v5.2l-7.1-2.5-7.2-2.6.5-9.5c1-18.5 9.7-32.6 23.5-37.7 5.2-2 14.8-1.2 20.1 1.5zm-83.5 6.7c8.4 5.5 13.6 16.8 14.5 31.1.4 7.7.2 9.3-1 9.3-.8 0-3.5 1-6 2.3l-4.6 2.3-.6-6c-.8-8.2-4.6-16-8.7-18.1-2.9-1.6-3.5-1.6-6.4-.2-4.7 2.3-7 7.6-7 16.7 0 7.9 2.2 14.6 6 18.4 1.8 1.8 1.8 1.9-.6 3.7-5.3 4.2-5.5 4.2-8.8-.8-11.5-17.4-10.6-43.8 2.1-56.5 6.3-6.3 13.7-7 21.1-2.2zm42.3 52.9c8.4 4.4 9.3 4.7 15.8 4.6 5.8-.2 8.9.5 19.4 4 20.4 7 27.2 12.4 27.2 21.6 0 11.2-11 22.6-27.9 29-3.6 1.3-11.3 5.4-17.1 8.9-14.6 8.9-20.2 10.8-32 10.8-11.8.1-17.3-2.2-28.1-11.6-4.1-3.5-10.8-8.7-15-11.5-7.9-5.3-12.8-10.2-15.5-15.4-2.2-4.3-2-11.6.4-14.8 3.1-4.2 25.4-20 28.3-20.1 1.4 0 4.6-1.6 7.1-3.6 7.2-5.5 13.1-7.5 21.4-7.1 6.2.3 8.2 1 16 5.2zm76 90.1c10.8 30.1 20.8 53.3 35.6 82.7 13.8 27.6 23.1 52.4 26.9 71.7.7 3.6 1.5 6.8 1.8 7.1.3.4 3.8 1 7.7 1.3 7.1.7 7.1.7 8.3-2.1 2.2-5.5 4.1-16.9 4.1-25.4 0-26.2-13.2-57.7-33.4-79.7-9.6-10.5-8-11.3 1.8-1 27.3 28.4 43.9 71.4 39.6 102.8-.6 4.7-1.2 8.9-1.3 9.4-.1.5 4 3.1 9.2 5.8 21.8 11.3 31.1 20.9 31.1 32.2 0 6-1 8.6-3.1 8.6-1.6 0-1.9-.8-1.9-5.8 0-4.6-.6-6.6-2.6-9.7-7.8-12-36.3-25.7-53.9-25.9-7-.1-8.6.2-12.7 2.6-5.1 3.1-9.2 9.9-10.4 17.3-.5 3.7-1.1 4.4-6 6.9-9.9 5.2-16.8 15.8-20.9 32-2.4 9.5-3.9 21.6-5.5 45.1-.8 12.9-4.3 30.4-7.9 39.7-1.9 4.9-22 16.8-39.5 23.3-17.6 6.5-25.7 7.9-46.1 7.9-15.6 0-19.1-.3-26.5-2.3-17-4.5-37.9-15.1-41.2-20.8-.9-1.6-4.6-6.7-8.2-11.3l-6.4-8.5 5.9-1.2c8.1-1.6 12.3-4.4 15-9.9 5.5-11.4-2.2-28.4-21.2-47.1-10.3-10.1-16.7-15.1-33.4-26.2-15.9-10.5-24.8-19.2-30.3-29.9-5.8-11.1-7.5-18.5-7.5-32.2-.1-17.7 4.2-34.6 14.3-57.2 5.2-11.7 22.1-42 22.9-41.2.3.2-3.4 8.2-8.2 17.7-16.5 33-19.7 43-20.4 65.2-.5 16 .6 23.9 4.8 33.4 2.6 6 8.1 15.1 9.1 15.1.4 0 .8-2 .8-4.4 0-8.4 3-27.6 6.4-40.9 4.3-16.6 9-28.9 20.6-54.2 26.7-57.9 37.8-90.1 40.6-117.9.4-3.7.8-6.6 1-6.6 1.3 0 13.1 8.4 18.9 13.5 9.1 7.8 12.8 10.1 20 12 15.4 4 28.2.8 49.4-12.5 3.5-2.2 8.9-4.9 12-6.1 9.4-3.5 16.5-7.8 21.6-12.9l4.9-4.9 4.7 15.8c2.7 8.7 6.9 21.7 9.5 28.7zm46.1 210.6c-.3.8-.6.5-.6-.6-.1-1.1.2-1.7.5-1.3.3.3.4 1.2.1 1.9zm-286.9 5.4c10.5 5.2 19.5 17.6 30.9 42.7 7.5 16.3 8.1 17.4 21.9 35.9 5.8 7.9 12 16.6 13.6 19.5 3.6 6.4 3.9 6.6 11.7 8.9 5.6 1.6 6.8 2.5 10.2 6.9 2.1 2.7 5.5 8.6 7.6 13 3.6 7.6 3.8 8.5 3.8 18 0 9.3-.2 10.5-3.3 16.7-7.1 14.4-21.3 21.8-41.8 21.8-16.5 0-29.7-3.5-52.2-14-16.2-7.4-27-10.1-54.2-13.5-22-2.7-28.2-3.8-34.5-6.5-4.6-2-10.2-7.8-11.1-11.6-1.2-4.8.4-18.7 3-26.3 3.6-10.4 4-15 2.2-28.8-1.6-12.5-2.1-27.3-.9-27.3.6 0 25.1 7.2 29 8.5.8.3.8-.6.1-3.3-2.7-9.9 1.2-18.4 12.2-26.4s14.3-11.3 21.5-21.9c5-7.5 8.1-11 11-12.6 5.6-3.2 12.6-3.1 19.3.3zm291.8 8.2c4.7 10.7 11.8 16.9 21.7 19.2 8.4 1.8 22-2.2 35.3-10.5l4.1-2.5 5 4.4 4.9 4.5 12.4-6.5 12.3-6.6 2.5 1.9c4.4 3.3 8 11.4 12.1 27 4.7 18 5.8 20.3 14.5 30.8 8.5 10.2 13.6 20.1 13.6 26.5 0 9.5-6.3 14.9-32.6 28-26.1 12.9-34.3 18.6-49.9 34.7-19.1 19.8-33.7 28.7-52 31.5-19.7 3.1-38-6.3-46.7-23.9-2.8-5.7-3.3-7.9-3.6-15.7-.5-11.2 1.6-22 9.2-47.7 3-10.1 6-20.3 6.6-22.7.6-2.3 1.6-4.2 2.3-4.2.7 0 2.4-1 4-2.3l2.8-2.2.9-21.5c1.2-29.3 3.5-38.2 12.3-47.7 4.1-4.4 4.1-4.5 5.1-2.1.5 1.2 2 4.7 3.2 7.6z"/><path d="M419.2 216c-2.4 1.1-9.3 4.9-15.3 8.6-22.1 13.2-32.3 16.8-46.9 16.2-9.1-.3-10.4-.7-18.1-4.5-5.6-2.8-11.8-7.1-18.4-12.9-7.3-6.4-10.1-8.2-10.3-7-.2.9 1.9 3.7 5.3 6.8 16.6 15.2 28.5 20.8 44 20.8 13 0 23.2-3.7 46.5-17 8.5-4.9 16.7-9.2 18.3-9.6 3-.7 3.8-3.4 1-3.4-1 0-3.8.9-6.1 2z"/></svg>