<svg xmlns="http://www.w3.org/2000/svg" height="56.7" width="56.7"><path d="M56.7-582.8c0 5.3-4.4 9.7-9.7 9.7H9.7a9.7 9.7 0 0 1-9.7-9.7V-620c0-5.4 4.4-9.8 9.7-9.8H47c5.3 0 9.7 4.4 9.7 9.8z" fill="#76bd22"/><path d="M38-608.5h-6.5v-4.2c0-1.6 1-2 1.8-2h4.5v-7h-6.2c-7 0-8.5 5.2-8.5 8.6v4.6h-4v7.1h4v20.3h8.4v-20.3h5.7z" fill="#fff"/><path d="M133.6-583c0 5.3-4.4 9.7-9.7 9.7H86.6a9.7 9.7 0 0 1-9.7-9.8v-37.2c0-5.3 4.4-9.7 9.7-9.7H124c5.3 0 9.7 4.4 9.7 9.7z" fill="#76bd22"/><path d="M125.5-614.2c-1.5.7-3.1 1.1-4.8 1.3 1.7-1 3-2.6 3.7-4.6-1.7 1-3.5 1.7-5.4 2a8.4 8.4 0 0 0-14.2 7.7c-7-.4-13.2-3.7-17.3-8.8a8.3 8.3 0 0 0 2.6 11.2c-1.4 0-2.7-.4-3.8-1 0 4.1 2.9 7.5 6.7 8.3a8.4 8.4 0 0 1-3.8.1c1.1 3.3 4.2 5.8 7.9 5.8a16.8 16.8 0 0 1-12.4 3.5 23.7 23.7 0 0 0 36.6-21.1 17 17 0 0 0 4.2-4.4" fill="#fff"/><path d="M210.5-582.8c0 5.3-4.4 9.7-9.7 9.7h-37.2a9.7 9.7 0 0 1-9.8-9.7V-620c0-5.4 4.4-9.8 9.8-9.8h37.2c5.3 0 9.7 4.4 9.7 9.8z" fill="#76bd22"/><path d="M195.8-611.2v-7H194v7h-7v1.8h7v7h1.8v-7h7v-1.8zM174-603.9c-2.8 0-5.5-3.1-6-6.8-.5-3.7 1.4-6.5 4.2-6.4 2.8 0 5.5 3 6 6.7s-1.4 6.6-4.2 6.5m6.7 11.9v1.1c0 3.2-2 5.7-7.8 5.7-4.2 0-7.2-2.7-7.2-5.9 0-3 3.7-5.7 7.9-5.6 1 0 1.9.1 2.7.4 2.3 1.6 3.9 2.5 4.4 4.3m3.8-26.1h-11c-4.8 0-9.4 3.4-9.4 7.7 0 4.4 3.3 7.8 8.3 7.8l1-.1c-.3.6-.5 1.3-.5 2 0 1.2.6 2.2 1.4 3h-1.9c-6 0-10.6 3.8-10.6 7.8s5 6.4 11 6.4c7 0 10.8-4 10.8-7.8 0-3.2-1-5-3.8-7.1-1-.7-2.9-2.4-2.9-3.4 0-1.2.3-1.7 2.1-3.1 1.8-1.4 3-3.1 3-5.4 0-2.8-1.1-6-3.4-6h3.4z" fill="#fff"/><path d="M441.2-583c0 5.3-4.3 9.7-9.7 9.7h-37.2a9.7 9.7 0 0 1-9.8-9.8v-37.2c0-5.3 4.4-9.7 9.8-9.7h37.2c5.4 0 9.7 4.4 9.7 9.7z" fill="#76bd22"/><path d="M428.3-611.2a3.7 3.7 0 1 1-5.3-5.3 3.7 3.7 0 0 1 5.3 5.3m-14.4-6.9c-3.2 3.3-4 8-2.6 12l-17.6 17.7.3 4.5 5.7 1.3 1.8-4.7 5.7-1.7.7-5 5.7-1.3.2-.1 1.2-4 2.9-.1a11.3 11.3 0 1 0-4-18.6" fill="#fff"/><path d="M364.3-583c0 5.3-4.3 9.7-9.7 9.7h-37.2a9.7 9.7 0 0 1-9.8-9.8v-37.2c0-5.3 4.4-9.7 9.8-9.7h37.2c5.4 0 9.7 4.4 9.7 9.7z" fill="#76bd22"/><path d="M343.6-585.5h7.6a21 21 0 0 0-8.7-17.1 9.2 9.2 0 0 1-13.1 0 21 21 0 0 0-8.8 17h7.6z" fill="#fff"/><path d="M344-610a8 8 0 1 1-16.1 0 8 8 0 0 1 16 0" fill="#fff"/><path d="M287.4-583c0 5.3-4.4 9.7-9.7 9.7h-37.2a9.7 9.7 0 0 1-9.8-9.8v-37.2c0-5.3 4.4-9.7 9.8-9.7h37.2c5.3 0 9.7 4.4 9.7 9.7z" fill="#76bd22"/><path d="M271.9-584h-6.4v-6.3h6.4zM271.9-593.5h-6.4v-6.4h6.4zM271.9-603.1h-6.4v-6.4h6.4zM271.9-612.7h-6.4v-6.4h6.4zM262.3-603.1h-6.4v-6.4h6.4zM262.3-612.7h-6.4v-6.4h6.4zM252.7-603.1h-6.5v-6.4h6.5zM262.3-584h-6.4v-6.3h6.4zM262.3-593.5h-6.4v-6.4h6.4zM252.7-584h-6.5v-6.3h6.5zM252.7-593.5h-6.5v-6.4h6.5z" fill="#fff"/><path d="M56.4-381.2a28.3 28.3 0 1 1-56.7 0 28.3 28.3 0 0 1 56.7 0M133.4-381.2a28.3 28.3 0 1 1-56.7 0 28.3 28.3 0 0 1 56.7 0M210.4-381.2a28.3 28.3 0 1 1-56.7 0 28.3 28.3 0 0 1 56.7 0M287.4-381.2a28.3 28.3 0 1 1-56.7 0 28.3 28.3 0 0 1 56.7 0M364.4-381.2a28.3 28.3 0 1 1-56.7 0 28.3 28.3 0 0 1 56.7 0M441.4-381.2a28.3 28.3 0 1 1-56.7 0 28.3 28.3 0 0 1 56.7 0" fill="#76bd22"/><path d="M38-388.5h-6.5v-4.2c0-1.6 1-2 1.8-2h4.5v-7h-6.2c-7 0-8.5 5.2-8.5 8.6v4.6h-4v7.1h4v20.3h8.4v-20.3h5.7zM124.5-393.6c-1.4.7-3 1.1-4.6 1.3a8 8 0 0 0 3.5-4.4 16 16 0 0 1-5 2 8 8 0 0 0-13.6 7.2 22.6 22.6 0 0 1-16.4-8.3 8 8 0 0 0 2.4 10.6 8 8 0 0 1-3.6-1v.1a8 8 0 0 0 6.4 7.8 8 8 0 0 1-3.6.1 8 8 0 0 0 7.5 5.6 16 16 0 0 1-11.8 3.3 22.5 22.5 0 0 0 34.8-20.1c1.6-1.2 3-2.6 4-4.2M343-366.9h7c-.3-7-3.5-12.8-8-15.7a8.5 8.5 0 0 1-12.1 0 19.3 19.3 0 0 0-8 15.7h7z" fill="#fff"/><path d="M343.3-389.3a7.4 7.4 0 1 1-14.7 0 7.4 7.4 0 0 1 14.7 0M426-389.7a3.2 3.2 0 1 1-4.5-4.6 3.2 3.2 0 0 1 4.6 4.6m-12.4-6a9.7 9.7 0 0 0-2.2 10.4l-15.2 15.2.2 3.9 5 1.1 1.5-4 4.9-1.5.6-4.4 5-1v-.1l1.2-3.5h2.4a9.7 9.7 0 1 0-3.4-16" fill="#fff"/><path d="M518.6-583c0 5.3-4.4 9.7-9.8 9.7h-37.2a9.7 9.7 0 0 1-9.7-9.8v-37.2c0-5.3 4.3-9.7 9.7-9.7h37.2c5.4 0 9.8 4.4 9.8 9.7zM518.7-381.2a28.3 28.3 0 1 1-56.7 0 28.3 28.3 0 0 1 56.7 0" fill="#76bd22"/><path d="M271.9-363.5h-6.4v-6.4h6.4zM271.9-373.1h-6.4v-6.5h6.4zM271.9-382.8h-6.4v-6.4h6.4zM271.9-392.4h-6.4v-6.4h6.4zM262.3-382.8h-6.4v-6.4h6.4zM262.3-392.4h-6.4v-6.4h6.4zM252.7-382.8h-6.5v-6.4h6.5zM262.3-363.5h-6.4v-6.4h6.4zM262.3-373.1h-6.4v-6.5h6.4zM252.7-363.5h-6.5v-6.4h6.5zM252.7-373.1h-6.5v-6.5h6.5zM195.8-388.4v-6.2h-1.5v6.2H188v1.6h6.3v6.2h1.5v-6.2h6.2v-1.6zM176.4-381.9c-2.5 0-4.9-2.8-5.3-6-.5-3.3 1.2-5.9 3.7-5.8 2.5 0 4.9 2.7 5.3 6 .5 3.3-1.2 5.9-3.7 5.8m6 10.6v1c0 2.8-1.8 5-7 5-3.7 0-6.4-2.3-6.4-5.2 0-2.7 3.3-5 7-5 1 0 1.7.1 2.5.4 2 1.4 3.4 2.2 3.8 3.8m3.4-23.3H176c-4.3 0-8.4 3-8.4 6.9 0 3.9 3 7 7.4 7l.9-.2c-.3.6-.5 1.2-.5 1.8 0 1.1.6 2 1.3 2.7H175c-5.4 0-9.5 3.4-9.5 7 0 3.5 4.5 5.7 10 5.7 6 0 9.5-3.5 9.5-7 0-2.8-.9-4.5-3.4-6.3-1-.6-2.6-2.2-2.6-3 0-1 .3-1.6 1.9-2.8 1.6-1.3 2.7-2.8 2.7-4.9 0-2.4-1-5.3-3.1-5.3h3zM479.4-601.5v9.8s2.6 2.7 11.2 2.7c8.5 0 11.4-2.7 11.4-2.7v-8.4l-8 4.2z" fill="#fff"/><path d="M475.3-599.5c0-.6-.4-1.2-1-1.4v-4l19.6 7.4 16.7-8.7-22.6-7-18.2 6.5 3.8 1.4v4.4c-.5.2-.8.8-.8 1.4l.1.8-1.3 4h4.8s-.6-2.3-1.3-4l.2-.8M479.4-381v9.8s2.6 2.6 11.2 2.6c8.5 0 11.4-2.6 11.4-2.6v-8.4l-8 4.2z" fill="#fff"/><path d="M475.3-379c0-.7-.4-1.3-1-1.4v-4.1l19.6 7.4 16.7-8.7-22.6-7-18.2 6.5 3.8 1.5v4.4c-.5.1-.8.7-.8 1.4l.1.7-1.3 4h4.8s-.6-2.3-1.3-4l.2-.7" fill="#fff"/><path d="M38 21.3h-6.5V17c0-1.6 1-2 1.8-2h4.5v-7h-6.2c-7 0-8.5 5.2-8.5 8.5v4.7h-4v7.1h4v20.2h8.4V28.4h5.7z"/><path d="M133.6 46.7c0 5.4-4.4 9.8-9.7 9.8H86.6a9.7 9.7 0 0 1-9.7-9.8V9.5c0-5.4 4.4-9.7 9.7-9.7H124c5.3 0 9.7 4.3 9.7 9.7z" fill="#253746"/><path d="M125.5 15.6c-1.5.7-3.1 1.1-4.8 1.3 1.7-1 3-2.6 3.7-4.6-1.7 1-3.5 1.7-5.4 2a8.4 8.4 0 0 0-14.2 7.7c-7-.4-13.2-3.7-17.3-8.8a8.3 8.3 0 0 0 2.6 11.2c-1.4 0-2.7-.4-3.8-1 0 4.1 2.9 7.5 6.7 8.3a8.4 8.4 0 0 1-3.8.1c1.1 3.3 4.2 5.8 7.9 5.8a16.8 16.8 0 0 1-12.4 3.5A23.7 23.7 0 0 0 121.3 20a17 17 0 0 0 4.2-4.4" fill="#fff"/><path d="M210.5 47c0 5.3-4.4 9.7-9.7 9.7h-37.2a9.7 9.7 0 0 1-9.8-9.7V9.7c0-5.3 4.4-9.7 9.8-9.7h37.2c5.3 0 9.7 4.4 9.7 9.7z" fill="#253746"/><path d="M195.8 18.6v-7H194v7h-7v1.8h7v7h1.8v-7h7v-1.8zM174 26c-2.8-.2-5.5-3.2-6-6.9s1.4-6.5 4.2-6.4c2.8 0 5.5 3 6 6.7s-1.4 6.6-4.2 6.5m6.7 11.9v1c0 3.3-2 5.7-7.8 5.7-4.2 0-7.2-2.6-7.2-5.8 0-3 3.7-5.7 7.9-5.6 1 0 1.9.1 2.7.4 2.3 1.6 3.9 2.5 4.4 4.3m3.8-26.1h-11c-4.8 0-9.4 3.4-9.4 7.7 0 4.4 3.3 7.8 8.3 7.8l1-.1c-.3.6-.5 1.2-.5 2 0 1.2.6 2.1 1.4 3h-1.9c-6 0-10.6 3.8-10.6 7.8s5 6.4 11 6.4c7 0 10.8-4 10.8-7.9 0-3.1-1-5-3.8-7-1-.7-2.9-2.4-2.9-3.4 0-1.2.3-1.8 2.1-3.1 1.8-1.4 3-3.2 3-5.5 0-2.7-1.1-6-3.4-6h3.4z" fill="#fff"/><path d="M441.2 46.7c0 5.4-4.3 9.8-9.7 9.8h-37.2a9.7 9.7 0 0 1-9.8-9.8V9.5c0-5.4 4.4-9.7 9.8-9.7h37.2c5.4 0 9.7 4.3 9.7 9.7z" fill="#253746"/><path d="M428.3 18.6a3.7 3.7 0 1 1-5.3-5.3 3.7 3.7 0 0 1 5.3 5.3m-14.4-6.9c-3.2 3.3-4 8-2.6 12l-17.6 17.7.3 4.5 5.7 1.3 1.8-4.7 5.7-1.7.7-5 5.7-1.3.2-.1 1.2-4 2.9-.2a11.3 11.3 0 1 0-4-18.5" fill="#fff"/><path d="M364.3 46.7c0 5.4-4.3 9.8-9.7 9.8h-37.2a9.7 9.7 0 0 1-9.8-9.8V9.5c0-5.4 4.4-9.7 9.8-9.7h37.2c5.4 0 9.7 4.3 9.7 9.7z" fill="#253746"/><path d="M343.6 44.3h7.6a21 21 0 0 0-8.7-17.2 9.2 9.2 0 0 1-13.1 0 21 21 0 0 0-8.8 17.2h7.6z" fill="#fff"/><path d="M344 19.9a8 8 0 1 1-16.1 0 8 8 0 0 1 16 0" fill="#fff"/><path d="M287.4 46.7c0 5.4-4.4 9.8-9.7 9.8h-37.2a9.7 9.7 0 0 1-9.8-9.8V9.5c0-5.4 4.4-9.7 9.8-9.7h37.2c5.3 0 9.7 4.3 9.7 9.7z" fill="#253746"/><path d="M271.9 45.9h-6.4v-6.4h6.4zM271.9 36.3h-6.4v-6.4h6.4zM271.9 26.7h-6.4v-6.5h6.4zM271.9 17h-6.4v-6.4h6.4zM262.3 26.7h-6.4v-6.5h6.4zM262.3 17h-6.4v-6.4h6.4zM252.7 26.7h-6.5v-6.5h6.5zM262.3 45.9h-6.4v-6.4h6.4zM262.3 36.3h-6.4v-6.4h6.4zM252.7 45.9h-6.5v-6.4h6.5zM252.7 36.3h-6.5v-6.4h6.5z" fill="#fff"/><path d="M56.4 248.6a28.3 28.3 0 1 1-56.7 0 28.3 28.3 0 0 1 56.7 0M133.4 248.6a28.3 28.3 0 1 1-56.7 0 28.3 28.3 0 0 1 56.7 0M210.4 248.6a28.3 28.3 0 1 1-56.7 0 28.3 28.3 0 0 1 56.7 0M287.4 248.6a28.3 28.3 0 1 1-56.7 0 28.3 28.3 0 0 1 56.7 0M364.4 248.6a28.3 28.3 0 1 1-56.7 0 28.3 28.3 0 0 1 56.7 0M441.4 248.6a28.3 28.3 0 1 1-56.7 0 28.3 28.3 0 0 1 56.7 0" fill="#253746"/><path d="M38 241.3h-6.5V237c0-1.6 1-2 1.8-2h4.5v-7h-6.2c-7 0-8.5 5.2-8.5 8.5v4.7h-4v7.1h4v20.2h8.4v-20.2h5.7zM124.5 236.2c-1.4.7-3 1.1-4.6 1.3a8 8 0 0 0 3.5-4.4 16 16 0 0 1-5 2 8 8 0 0 0-13.6 7.2 22.6 22.6 0 0 1-16.4-8.3 8 8 0 0 0 2.4 10.6 8 8 0 0 1-3.6-1 8 8 0 0 0 6.4 7.9 8 8 0 0 1-3.6.1 8 8 0 0 0 7.5 5.6 16 16 0 0 1-11.8 3.3c3.5 2.2 7.7 3.5 12.2 3.5a22.5 22.5 0 0 0 22.6-23.6c1.6-1.2 3-2.6 4-4.2M343 263h7c-.3-7-3.5-13-8-15.8a8.5 8.5 0 0 1-12.1 0 19.3 19.3 0 0 0-8 15.7h7z" fill="#fff"/><path d="M343.3 240.5a7.4 7.4 0 1 1-14.7 0 7.4 7.4 0 0 1 14.7 0M426 240a3.2 3.2 0 1 1-4.5-4.5 3.2 3.2 0 0 1 4.6 4.6m-12.4-6a9.7 9.7 0 0 0-2.2 10.4l-15.2 15.2.2 3.9 5 1 1.5-4 4.9-1.4.6-4.4 5-1v-.1l1.2-3.5h2.4a9.7 9.7 0 1 0-3.4-16" fill="#fff"/><path d="M518.6 46.7c0 5.4-4.4 9.8-9.8 9.8h-37.2a9.7 9.7 0 0 1-9.7-9.8V9.5c0-5.4 4.3-9.7 9.7-9.7h37.2c5.4 0 9.8 4.3 9.8 9.7zM518.7 248.6a28.3 28.3 0 1 1-56.7 0 28.3 28.3 0 0 1 56.7 0" fill="#253746"/><path d="M271.9 266.3h-6.4v-6.5h6.4zM271.9 256.6h-6.4v-6.4h6.4zM271.9 247h-6.4v-6.4h6.4zM271.9 237.4h-6.4V231h6.4zM262.3 247h-6.4v-6.4h6.4zM262.3 237.4h-6.4V231h6.4zM252.7 247h-6.5v-6.4h6.5zM262.3 266.3h-6.4v-6.5h6.4zM262.3 256.6h-6.4v-6.4h6.4zM252.7 266.3h-6.5v-6.5h6.5zM252.7 256.6h-6.5v-6.4h6.5zM195.8 241.4v-6.2h-1.5v6.2H188v1.6h6.3v6.2h1.5V243h6.2v-1.6zM176.4 247.9c-2.5 0-4.9-2.8-5.3-6-.5-3.4 1.2-5.9 3.7-5.8 2.5 0 4.9 2.7 5.3 6 .5 3.3-1.2 5.9-3.7 5.8m6 10.6v1c0 2.8-1.8 5-7 5-3.7 0-6.4-2.3-6.4-5.2 0-2.8 3.3-5 7-5 1 0 1.7.1 2.5.4 2 1.4 3.4 2.2 3.8 3.8m3.4-23.3H176c-4.3 0-8.4 3-8.4 6.9 0 3.9 3 7 7.4 7l.9-.2c-.3.6-.5 1.2-.5 1.8 0 1 .6 2 1.3 2.7H175c-5.4 0-9.5 3.4-9.5 7 0 3.5 4.5 5.7 10 5.7 6 0 9.5-3.5 9.5-7 0-2.8-.9-4.5-3.4-6.3-1-.7-2.6-2.2-2.6-3 0-1 .3-1.6 1.9-2.8 1.6-1.3 2.7-2.8 2.7-4.9 0-2.4-1-5.4-3.1-5.4h3zM479.4 28.3v9.8s2.6 2.7 11.2 2.7C499 40.8 502 38 502 38v-8.4l-8 4.2z" fill="#fff"/><path d="M475.3 30.3c0-.7-.4-1.2-1-1.4v-4.1l19.6 7.5 16.7-8.7-22.6-7-18.2 6.4 3.8 1.5V29c-.5.2-.8.7-.8 1.4l.1.7a50 50 0 0 0-1.3 4.1h4.8s-.6-2.3-1.3-4l.2-.8M479.4 248.8v9.8s2.6 2.6 11.2 2.6c8.5 0 11.4-2.6 11.4-2.6v-8.4l-8 4.2z" fill="#fff"/><path d="M475.3 250.8c0-.7-.4-1.3-1-1.5v-4l19.6 7.4 16.7-8.7-22.6-7-18.2 6.5 3.8 1.5v4.3c-.5.2-.8.8-.8 1.5l.1.7-1.3 4h4.8s-.6-2.3-1.3-4l.2-.7" fill="#fff"/></svg>