<svg xmlns="http://www.w3.org/2000/svg" height="56.7" width="56.7"><path d="M-97.1-582.8c0 5.3-4.4 9.7-9.8 9.7H-144a9.7 9.7 0 0 1-9.7-9.7V-620c0-5.4 4.3-9.8 9.7-9.8h37.2c5.4 0 9.8 4.4 9.8 9.8z" fill="#76bd22"/><path d="M-115.9-608.5h-6.4v-4.2c0-1.6 1-2 1.8-2h4.5v-7h-6.2c-7 0-8.5 5.2-8.5 8.6v4.6h-4v7.1h4v20.3h8.4v-20.3h5.7z" fill="#fff"/><path d="M-20.2-583c0 5.3-4.4 9.7-9.8 9.7h-37.2a9.7 9.7 0 0 1-9.7-9.8v-37.2c0-5.3 4.4-9.7 9.7-9.7H-30c5.4 0 9.8 4.4 9.8 9.7z" fill="#76bd22"/><path d="M-28.3-614.2c-1.5.7-3.1 1.1-4.8 1.3 1.7-1 3-2.6 3.6-4.6-1.6 1-3.4 1.7-5.3 2a8.4 8.4 0 0 0-14.2 7.7c-7-.4-13.2-3.7-17.3-8.8a8.3 8.3 0 0 0 2.6 11.2c-1.4 0-2.7-.4-3.8-1 0 4.1 2.9 7.5 6.7 8.3a8.4 8.4 0 0 1-3.8.1c1.1 3.3 4.2 5.8 7.9 5.8a16.8 16.8 0 0 1-12.4 3.5 23.7 23.7 0 0 0 36.6-21.1 17 17 0 0 0 4.2-4.4" fill="#fff"/><path d="M56.7-582.8c0 5.3-4.4 9.7-9.7 9.7H9.7a9.7 9.7 0 0 1-9.7-9.7V-620c0-5.4 4.4-9.8 9.7-9.8H47c5.3 0 9.7 4.4 9.7 9.8z" fill="#76bd22"/><path d="M42-611.2v-7h-1.8v7h-7v1.8h7v7H42v-7h7v-1.8zM20.2-603.9c-2.8 0-5.5-3.1-6-6.8-.5-3.7 1.4-6.5 4.2-6.4 2.8 0 5.5 3 6 6.7.4 3.7-1.4 6.6-4.2 6.5m6.6 11.9l.2 1.1c0 3.2-2 5.7-8 5.7-4.1 0-7.1-2.7-7.1-5.9 0-3 3.7-5.7 7.9-5.6 1 0 1.9.1 2.7.4 2.3 1.6 3.9 2.5 4.3 4.3m3.8-26.1H19.8c-5 0-9.5 3.4-9.5 7.7 0 4.4 3.3 7.8 8.3 7.8l1-.1c-.3.6-.6 1.3-.6 2 0 1.2.7 2.2 1.5 3h-1.9c-6 0-10.7 3.8-10.7 7.8s5.1 6.4 11.2 6.4c6.9 0 10.7-4 10.7-7.8 0-3.2-1-5-3.8-7.1-1-.7-2.9-2.4-2.9-3.4 0-1.2.3-1.7 2-3.1 1.9-1.4 3.2-3.1 3.2-5.4 0-2.8-1.3-6-3.5-6h3.4z" fill="#fff"/><path d="M287.4-583c0 5.3-4.4 9.7-9.7 9.7h-37.2a9.7 9.7 0 0 1-9.8-9.8v-37.2c0-5.3 4.4-9.7 9.8-9.7h37.2c5.3 0 9.7 4.4 9.7 9.7z" fill="#76bd22"/><path d="M274.5-611.2a3.7 3.7 0 1 1-5.3-5.3 3.7 3.7 0 0 1 5.3 5.3m-14.4-6.9c-3.2 3.3-4 8-2.6 12L240-588.4l.3 4.5 5.7 1.3 1.8-4.7 5.7-1.7.6-5 5.8-1.3.2-.1 1.2-4 2.9-.1a11.3 11.3 0 1 0-4-18.6" fill="#fff"/><path d="M210.5-583c0 5.3-4.4 9.7-9.7 9.7h-37.2a9.7 9.7 0 0 1-9.8-9.8v-37.2c0-5.3 4.4-9.7 9.8-9.7h37.2c5.3 0 9.7 4.4 9.7 9.7z" fill="#76bd22"/><path d="M189.7-585.5h7.7a21 21 0 0 0-8.7-17.1 9.2 9.2 0 0 1-13.2 0 21 21 0 0 0-8.7 17h7.6z" fill="#fff"/><path d="M190.1-610a8 8 0 1 1-16 0 8 8 0 0 1 16 0" fill="#fff"/><path d="M133.6-583c0 5.3-4.4 9.7-9.7 9.7H86.6a9.7 9.7 0 0 1-9.7-9.8v-37.2c0-5.3 4.4-9.7 9.7-9.7H124c5.3 0 9.7 4.4 9.7 9.7z" fill="#76bd22"/><path d="M118-584h-6.3v-6.3h6.4zM118-593.5h-6.3v-6.4h6.4zM118-603.1h-6.3v-6.4h6.4zM118-612.7h-6.3v-6.4h6.4zM108.5-603.1H102v-6.4h6.5zM108.5-612.7H102v-6.4h6.5zM98.8-603.1h-6.4v-6.4h6.4zM108.5-584H102v-6.3h6.5zM108.5-593.5H102v-6.4h6.5zM98.8-584h-6.4v-6.3h6.4zM98.8-593.5h-6.4v-6.4h6.4z" fill="#fff"/><path d="M-97.4-381.2a28.3 28.3 0 1 1-56.7 0 28.3 28.3 0 0 1 56.7 0M-20.4-381.2a28.3 28.3 0 1 1-56.7 0 28.3 28.3 0 0 1 56.7 0M56.6-381.2a28.3 28.3 0 1 1-56.7 0 28.3 28.3 0 0 1 56.7 0M133.6-381.2a28.3 28.3 0 1 1-56.7 0 28.3 28.3 0 0 1 56.7 0M210.5-381.2a28.3 28.3 0 1 1-56.6 0 28.3 28.3 0 0 1 56.6 0M287.5-381.2a28.3 28.3 0 1 1-56.6 0 28.3 28.3 0 0 1 56.6 0" fill="#76bd22"/><path d="M-115.9-388.5h-6.4v-4.2c0-1.6 1-2 1.8-2h4.5v-7h-6.2c-7 0-8.5 5.2-8.5 8.6v4.6h-4v7.1h4v20.3h8.4v-20.3h5.7zM-29.3-393.6c-1.5.7-3 1.1-4.6 1.3a8 8 0 0 0 3.5-4.4 16 16 0 0 1-5 2 8 8 0 0 0-13.6 7.2 22.6 22.6 0 0 1-16.4-8.3 8 8 0 0 0 2.4 10.6 8 8 0 0 1-3.6-1v.1a8 8 0 0 0 6.4 7.8 8 8 0 0 1-3.6.1 8 8 0 0 0 7.5 5.6 16 16 0 0 1-11.8 3.3 22.5 22.5 0 0 0 34.8-20.1c1.6-1.2 2.9-2.6 4-4.2M189.1-366.9h7c-.2-7-3.4-12.8-8-15.7a8.5 8.5 0 0 1-12 0 19.3 19.3 0 0 0-8 15.7h7z" fill="#fff"/><path d="M189.5-389.3a7.4 7.4 0 1 1-14.8 0 7.4 7.4 0 0 1 14.8 0M272.3-389.7a3.2 3.2 0 1 1-4.6-4.6 3.2 3.2 0 0 1 4.6 4.6m-12.4-6a9.7 9.7 0 0 0-2.2 10.4l-15.2 15.2.2 3.9 5 1.1 1.5-4 4.9-1.5.6-4.4 5-1v-.1l1.2-3.5h2.4a9.7 9.7 0 1 0-3.4-16" fill="#fff"/><path d="M364.7-583c0 5.3-4.3 9.7-9.7 9.7h-37.2a9.7 9.7 0 0 1-9.7-9.8v-37.2c0-5.3 4.3-9.7 9.7-9.7H355c5.4 0 9.7 4.4 9.7 9.7zM364.9-381.2a28.3 28.3 0 1 1-56.7 0 28.3 28.3 0 0 1 56.7 0" fill="#76bd22"/><path d="M118-363.5h-6.3v-6.4h6.4zM118-373.1h-6.3v-6.5h6.4zM118-382.8h-6.3v-6.4h6.4zM118-392.4h-6.3v-6.4h6.4zM108.5-382.8H102v-6.4h6.5zM108.5-392.4H102v-6.4h6.5zM98.8-382.8h-6.4v-6.4h6.4zM108.5-363.5H102v-6.4h6.5zM108.5-373.1H102v-6.5h6.5zM98.8-363.5h-6.4v-6.4h6.4zM98.8-373.1h-6.4v-6.5h6.4zM42-388.4v-6.2h-1.5v6.2h-6.3v1.6h6.3v6.2H42v-6.2h6.2v-1.6zM22.6-381.9c-2.5 0-5-2.8-5.3-6-.5-3.3 1.2-5.9 3.7-5.8 2.5 0 4.9 2.7 5.3 6 .4 3.3-1.2 5.9-3.7 5.8m6 10.6v1c0 2.8-1.8 5-7 5-3.7 0-6.4-2.3-6.4-5.2 0-2.7 3.3-5 7-5 .9 0 1.7.1 2.4.4 2 1.4 3.5 2.2 4 3.8m3.3-23.3h-9.7c-4.3 0-8.4 3-8.4 6.9 0 3.9 3 7 7.4 7l.9-.2c-.3.6-.5 1.2-.5 1.8 0 1.1.6 2 1.3 2.7h-1.7c-5.4 0-9.5 3.4-9.5 7 0 3.5 4.5 5.7 10 5.7 6 0 9.4-3.5 9.4-7 0-2.8-.8-4.5-3.4-6.3-.8-.6-2.5-2.2-2.5-3 0-1 .3-1.6 1.9-2.8 1.6-1.3 2.7-2.8 2.7-4.9 0-2.4-1-5.3-3.1-5.3h3zM325.5-601.5v9.8s2.7 2.7 11.3 2.7c8.5 0 11.4-2.7 11.4-2.7v-8.4l-8 4.2z" fill="#fff"/><path d="M321.4-599.5c0-.6-.3-1.2-.8-1.4v-4l19.5 7.4 16.7-8.7-22.6-7-18.2 6.5 3.8 1.4v4.4c-.5.2-.8.8-.8 1.4l.1.8-1.3 4h4.8l-1.3-4 .1-.8M325.5-381v9.8s2.7 2.6 11.3 2.6c8.5 0 11.4-2.6 11.4-2.6v-8.4l-8 4.2z" fill="#fff"/><path d="M321.4-379c0-.7-.3-1.3-.8-1.4v-4.1l19.5 7.4 16.7-8.7-22.6-7-18.2 6.5 3.8 1.5v4.4c-.5.1-.8.7-.8 1.4l.1.7-1.3 4h4.8l-1.3-4 .1-.7" fill="#fff"/><path d="M-115.9 21.3h-6.4V17c0-1.6 1-2 1.8-2h4.5v-7h-6.2c-7 0-8.5 5.2-8.5 8.5v4.7h-4v7.1h4v20.2h8.4V28.4h5.7zM-28.3 15.6c-1.5.7-3.1 1.1-4.8 1.3 1.7-1 3-2.6 3.6-4.6-1.6 1-3.4 1.7-5.3 2A8.4 8.4 0 0 0-49 22c-7-.4-13.2-3.7-17.3-8.8a8.3 8.3 0 0 0 2.6 11.2c-1.4 0-2.7-.4-3.8-1 0 4.1 2.9 7.5 6.7 8.3a8.4 8.4 0 0 1-3.8.1c1.1 3.3 4.2 5.8 7.9 5.8a16.8 16.8 0 0 1-12.4 3.5A23.7 23.7 0 0 0-32.5 20a17 17 0 0 0 4.2-4.4M42 18.6v-7h-1.8v7h-7v1.8h7v7H42v-7h7v-1.8zM20.2 26c-2.8-.2-5.5-3.2-6-6.9s1.4-6.5 4.2-6.4c2.8 0 5.5 3 6 6.7.4 3.7-1.4 6.6-4.2 6.5m6.6 11.9l.2 1c0 3.3-2 5.7-8 5.7-4.1 0-7.1-2.6-7.1-5.8 0-3 3.7-5.7 7.9-5.6 1 0 1.9.1 2.7.4 2.3 1.6 3.9 2.5 4.3 4.3m3.8-26.1H19.8c-5 0-9.5 3.4-9.5 7.7 0 4.4 3.3 7.8 8.3 7.8l1-.1c-.3.6-.6 1.2-.6 2 0 1.2.7 2.1 1.5 3h-1.9C12.6 32 8 35.9 8 39.9s5.1 6.4 11.2 6.4c6.9 0 10.7-4 10.7-7.9 0-3.1-1-5-3.8-7C25 30.7 23 29 23 28c0-1.2.3-1.8 2-3.1 1.9-1.4 3.2-3.2 3.2-5.5 0-2.7-1.3-6-3.5-6h3.4z"/><path d="M287.4 46.7c0 5.4-4.4 9.8-9.7 9.8h-37.2a9.7 9.7 0 0 1-9.8-9.8V9.5c0-5.4 4.4-9.7 9.8-9.7h37.2c5.3 0 9.7 4.3 9.7 9.7z" fill="#253746"/><path d="M274.5 18.6a3.7 3.7 0 1 1-5.3-5.3 3.7 3.7 0 0 1 5.3 5.3M260 11.7c-3.2 3.3-4 8-2.6 12L240 41.4l.3 4.5 5.7 1.3 1.8-4.7 5.7-1.7.6-5 5.8-1.3.2-.1 1.2-4 2.9-.2a11.3 11.3 0 1 0-4-18.5" fill="#fff"/><path d="M210.5 46.7c0 5.4-4.4 9.8-9.7 9.8h-37.2a9.7 9.7 0 0 1-9.8-9.8V9.5c0-5.4 4.4-9.7 9.8-9.7h37.2c5.3 0 9.7 4.3 9.7 9.7z" fill="#253746"/><path d="M189.7 44.3h7.7a21 21 0 0 0-8.7-17.2 9.2 9.2 0 0 1-13.2 0 21 21 0 0 0-8.7 17.2h7.6z" fill="#fff"/><path d="M190.1 19.9a8 8 0 1 1-16 0 8 8 0 0 1 16 0" fill="#fff"/><path d="M133.6 46.7c0 5.4-4.4 9.8-9.7 9.8H86.6a9.7 9.7 0 0 1-9.7-9.8V9.5c0-5.4 4.4-9.7 9.7-9.7H124c5.3 0 9.7 4.3 9.7 9.7z" fill="#253746"/><path d="M118 45.9h-6.3v-6.4h6.4zM118 36.3h-6.3v-6.4h6.4zM118 26.7h-6.3v-6.5h6.4zM118 17h-6.3v-6.4h6.4zM108.5 26.7H102v-6.5h6.5zM108.5 17H102v-6.4h6.5zM98.8 26.7h-6.4v-6.5h6.4zM108.5 45.9H102v-6.4h6.5zM108.5 36.3H102v-6.4h6.5zM98.8 45.9h-6.4v-6.4h6.4zM98.8 36.3h-6.4v-6.4h6.4z" fill="#fff"/><path d="M-97.4 248.6a28.3 28.3 0 1 1-56.7 0 28.3 28.3 0 0 1 56.7 0M-20.4 248.6a28.3 28.3 0 1 1-56.7 0 28.3 28.3 0 0 1 56.7 0M56.6 248.6a28.3 28.3 0 1 1-56.7 0 28.3 28.3 0 0 1 56.7 0M133.6 248.6a28.3 28.3 0 1 1-56.7 0 28.3 28.3 0 0 1 56.7 0M210.5 248.6a28.3 28.3 0 1 1-56.6 0 28.3 28.3 0 0 1 56.6 0M287.5 248.6a28.3 28.3 0 1 1-56.6 0 28.3 28.3 0 0 1 56.6 0" fill="#253746"/><path d="M-115.9 241.3h-6.4V237c0-1.6 1-2 1.8-2h4.5v-7h-6.2c-7 0-8.5 5.2-8.5 8.5v4.7h-4v7.1h4v20.2h8.4v-20.2h5.7zM-29.3 236.2c-1.5.7-3 1.1-4.6 1.3a8 8 0 0 0 3.5-4.4 16 16 0 0 1-5 2 8 8 0 0 0-13.6 7.2 22.6 22.6 0 0 1-16.4-8.3 8 8 0 0 0 2.4 10.6 8 8 0 0 1-3.6-1 8 8 0 0 0 6.4 7.9 8 8 0 0 1-3.6.1 8 8 0 0 0 7.5 5.6 16 16 0 0 1-11.8 3.3c3.5 2.2 7.7 3.5 12.2 3.5a22.5 22.5 0 0 0 22.6-23.6c1.6-1.2 2.9-2.6 4-4.2M189.1 263h7c-.2-7-3.4-13-8-15.8a8.5 8.5 0 0 1-12 0 19.3 19.3 0 0 0-8 15.7h7z" fill="#fff"/><path d="M189.5 240.5a7.4 7.4 0 1 1-14.8 0 7.4 7.4 0 0 1 14.8 0M272.3 240a3.2 3.2 0 1 1-4.6-4.5 3.2 3.2 0 0 1 4.6 4.6m-12.4-6a9.7 9.7 0 0 0-2.2 10.4l-15.2 15.2.2 3.9 5 1 1.5-4 4.9-1.4.6-4.4 5-1v-.1l1.2-3.5h2.4a9.7 9.7 0 1 0-3.4-16" fill="#fff"/><path d="M364.7 46.7c0 5.4-4.3 9.8-9.7 9.8h-37.2a9.7 9.7 0 0 1-9.7-9.8V9.5c0-5.4 4.3-9.7 9.7-9.7H355c5.4 0 9.7 4.3 9.7 9.7zM364.9 248.6a28.3 28.3 0 1 1-56.7 0 28.3 28.3 0 0 1 56.7 0" fill="#253746"/><path d="M118 266.3h-6.3v-6.5h6.4zM118 256.6h-6.3v-6.4h6.4zM118 247h-6.3v-6.4h6.4zM118 237.4h-6.3V231h6.4zM108.5 247H102v-6.4h6.5zM108.5 237.4H102V231h6.5zM98.8 247h-6.4v-6.4h6.4zM108.5 266.3H102v-6.5h6.5zM108.5 256.6H102v-6.4h6.5zM98.8 266.3h-6.4v-6.5h6.4zM98.8 256.6h-6.4v-6.4h6.4zM42 241.4v-6.2h-1.5v6.2h-6.3v1.6h6.3v6.2H42V243h6.2v-1.6zM22.6 247.9c-2.5 0-5-2.8-5.3-6-.5-3.4 1.2-5.9 3.7-5.8 2.5 0 4.9 2.7 5.3 6 .4 3.3-1.2 5.9-3.7 5.8m6 10.6v1c0 2.8-1.8 5-7 5-3.7 0-6.4-2.3-6.4-5.2 0-2.8 3.3-5 7-5 .9 0 1.7.1 2.4.4 2 1.4 3.5 2.2 4 3.8m3.3-23.3h-9.7c-4.3 0-8.4 3-8.4 6.9 0 3.9 3 7 7.4 7l.9-.2c-.3.6-.5 1.2-.5 1.8 0 1 .6 2 1.3 2.7h-1.7c-5.4 0-9.5 3.4-9.5 7 0 3.5 4.5 5.7 10 5.7 6 0 9.4-3.5 9.4-7 0-2.8-.8-4.5-3.4-6.3-.8-.7-2.5-2.2-2.5-3 0-1 .3-1.6 1.9-2.8 1.6-1.3 2.7-2.8 2.7-4.9 0-2.4-1-5.4-3.1-5.4h3zM325.5 28.3v9.8s2.7 2.7 11.3 2.7c8.5 0 11.4-2.7 11.4-2.7v-8.4l-8 4.2z" fill="#fff"/><path d="M321.4 30.3c0-.7-.3-1.2-.8-1.4v-4.1l19.5 7.5 16.7-8.7-22.6-7L316 23l3.8 1.5V29c-.5.2-.8.7-.8 1.4l.1.7a50 50 0 0 0-1.3 4.1h4.8l-1.3-4 .1-.8M325.5 248.8v9.8s2.7 2.6 11.3 2.6c8.5 0 11.4-2.6 11.4-2.6v-8.4l-8 4.2z" fill="#fff"/><path d="M321.4 250.8c0-.7-.3-1.3-.8-1.5v-4l19.5 7.4 16.7-8.7-22.6-7-18.2 6.5 3.8 1.5v4.3c-.5.2-.8.8-.8 1.5l.1.7-1.3 4h4.8l-1.3-4 .1-.7" fill="#fff"/></svg>