<svg xmlns="http://www.w3.org/2000/svg" height="56.7" width="56.7"><path d="M-20.2-582.6c0 5.4-4.4 9.7-9.8 9.7h-37.2a9.7 9.7 0 0 1-9.7-9.7v-37.2c0-5.4 4.4-9.8 9.7-9.8H-30c5.4 0 9.8 4.4 9.8 9.8z" fill="#76bd22"/><path d="M-39-608.3h-6.4v-4.2c0-1.6 1-2 1.8-2h4.5v-6.9h-6.2c-7 0-8.5 5.2-8.5 8.5v4.6h-4v7.1h4v20.3h8.4v-20.3h5.7z" fill="#fff"/><path d="M56.7-582.8c0 5.3-4.4 9.7-9.7 9.7H9.7a9.7 9.7 0 0 1-9.7-9.7V-620c0-5.4 4.4-9.8 9.7-9.8H47c5.3 0 9.7 4.4 9.7 9.8z" fill="#76bd22"/><path d="M48.6-614c-1.5.7-3.1 1.2-4.8 1.4 1.7-1 3-2.7 3.7-4.7-1.7 1-3.5 1.7-5.4 2a8.4 8.4 0 0 0-14.2 7.7c-7-.3-13.2-3.7-17.3-8.7a8.3 8.3 0 0 0 2.6 11.1c-1.4 0-2.7-.4-3.8-1 0 4.1 2.9 7.5 6.7 8.3a8.4 8.4 0 0 1-3.8.1c1.1 3.4 4.2 5.8 7.9 5.9a16.8 16.8 0 0 1-12.4 3.4 23.7 23.7 0 0 0 36.6-21.1 17 17 0 0 0 4.2-4.4" fill="#fff"/><path d="M133.6-582.6c0 5.4-4.4 9.7-9.7 9.7H86.6a9.7 9.7 0 0 1-9.7-9.7v-37.2c0-5.4 4.4-9.8 9.7-9.8H124c5.3 0 9.7 4.4 9.7 9.8z" fill="#76bd22"/><path d="M118.9-611v-7H117v7h-7v1.8h7v7h1.8v-7h7v-1.7zM97-603.6c-2.7-.1-5.4-3.2-5.9-6.9-.5-3.6 1.4-6.5 4.2-6.4 2.8.1 5.5 3 6 6.7.4 3.7-1.4 6.6-4.2 6.6m6.7 11.8v1.1c0 3.2-2 5.7-7.8 5.7-4.2 0-7.2-2.7-7.2-5.8 0-3.2 3.7-5.7 7.9-5.7 1 0 1.9.2 2.7.4 2.3 1.6 3.9 2.5 4.4 4.3m3.8-26.1h-11c-4.8 0-9.4 3.4-9.4 7.7 0 4.4 3.3 7.8 8.3 7.8l1-.1c-.3.6-.6 1.3-.6 2 0 1.2.7 2.2 1.5 3h-1.9c-6 0-10.7 3.8-10.7 7.8s5.1 6.4 11.2 6.4c6.9 0 10.7-3.9 10.7-7.8 0-3.2-1-5-3.8-7.1-1-.7-2.9-2.4-2.9-3.4 0-1.1.3-1.7 2.1-3 1.8-1.5 3-3.2 3-5.5 0-2.8-1.1-6-3.4-6h3.4z" fill="#fff"/><path d="M364.3-582.8c0 5.3-4.3 9.7-9.7 9.7h-37.2a9.7 9.7 0 0 1-9.8-9.7V-620c0-5.4 4.4-9.8 9.8-9.8h37.2c5.4 0 9.7 4.4 9.7 9.8z" fill="#76bd22"/><path d="M351.4-611a3.7 3.7 0 1 1-5.3-5.3 3.7 3.7 0 0 1 5.3 5.3m-14.4-6.8c-3.2 3.2-4 8-2.6 12l-17.6 17.6.3 4.5 5.7 1.3 1.8-4.7 5.7-1.6.7-5.1 5.7-1.3h.2l1.2-4 2.9-.2a11.3 11.3 0 1 0-4-18.5" fill="#fff"/><path d="M287.4-582.8c0 5.3-4.3 9.7-9.7 9.7h-37.2a9.7 9.7 0 0 1-9.8-9.7V-620c0-5.4 4.4-9.8 9.8-9.8h37.2c5.4 0 9.7 4.4 9.7 9.8z" fill="#76bd22"/><path d="M266.7-585.3h7.6a21 21 0 0 0-8.7-17.1 9.2 9.2 0 0 1-13.1 0 21 21 0 0 0-8.8 17h7.6z" fill="#fff"/><path d="M267-609.7a8 8 0 1 1-16 0 8 8 0 0 1 16 0" fill="#fff"/><path d="M210.5-582.8c0 5.3-4.4 9.7-9.7 9.7h-37.3a9.7 9.7 0 0 1-9.7-9.7V-620c0-5.4 4.4-9.8 9.7-9.8h37.3c5.3 0 9.7 4.4 9.7 9.8z" fill="#76bd22"/><path d="M195-583.7h-6.4v-6.4h6.4zM195-593.3h-6.4v-6.4h6.4zM195-603h-6.4v-6.3h6.4zM195-612.5h-6.4v-6.4h6.4zM185.4-603H179v-6.3h6.4zM185.4-612.5H179v-6.4h6.4zM175.8-603h-6.5v-6.3h6.5zM185.4-583.7H179v-6.4h6.4zM185.4-593.3H179v-6.4h6.4zM175.8-583.7h-6.5v-6.4h6.5zM175.8-593.3h-6.5v-6.4h6.5z" fill="#fff"/><path d="M-20.5-381a28.3 28.3 0 1 1-56.7 0 28.3 28.3 0 0 1 56.7 0M56.5-381a28.3 28.3 0 1 1-56.7 0 28.3 28.3 0 0 1 56.7 0M133.5-381a28.3 28.3 0 1 1-56.7 0 28.3 28.3 0 0 1 56.7 0M210.5-381a28.3 28.3 0 1 1-56.7 0 28.3 28.3 0 0 1 56.7 0M287.5-381a28.3 28.3 0 1 1-56.7 0 28.3 28.3 0 0 1 56.7 0M364.5-381a28.3 28.3 0 1 1-56.7 0 28.3 28.3 0 0 1 56.7 0" fill="#76bd22"/><path d="M-39-388.3h-6.4v-4.2c0-1.6 1-2 1.8-2h4.5v-6.9h-6.2c-7 0-8.5 5.2-8.5 8.5v4.6h-4v7.1h4v20.3h8.4v-20.3h5.7zM47.6-393.3c-1.5.6-3 1-4.6 1.2a8 8 0 0 0 3.5-4.4 16 16 0 0 1-5 2 8 8 0 0 0-13.6 7.2 22.6 22.6 0 0 1-16.4-8.3 8 8 0 0 0 2.4 10.6 8 8 0 0 1-3.6-1v.1a8 8 0 0 0 6.4 7.8 8 8 0 0 1-3.6.2 8 8 0 0 0 7.5 5.5 16 16 0 0 1-11.8 3.3 22.5 22.5 0 0 0 34.8-20.1c1.6-1.1 3-2.5 4-4.1M266-366.6h7c-.2-7-3.4-13-8-15.7a8.5 8.5 0 0 1-12 0 19.3 19.3 0 0 0-8 15.7h7z" fill="#fff"/><path d="M266.4-389a7.4 7.4 0 1 1-14.8 0 7.4 7.4 0 0 1 14.8 0M349.2-389.5a3.2 3.2 0 1 1-4.6-4.5 3.2 3.2 0 0 1 4.6 4.5m-12.4-5.9a9.7 9.7 0 0 0-2.2 10.3l-15.2 15.2.2 4 5 1 1.5-4 4.9-1.5.6-4.3 5-1.1v-.1l1.2-3.4 2.4-.2a9.7 9.7 0 1 0-3.4-15.9" fill="#fff"/><path d="M441.6-582.8c0 5.3-4.3 9.7-9.7 9.7h-37.2a9.7 9.7 0 0 1-9.7-9.7V-620c0-5.4 4.3-9.8 9.7-9.8h37.2c5.4 0 9.7 4.4 9.7 9.8zM441.8-381a28.3 28.3 0 1 1-56.7 0 28.3 28.3 0 0 1 56.7 0" fill="#76bd22"/><path d="M195-363.3h-6.4v-6.4h6.4zM195-373h-6.4v-6.3h6.4zM195-382.5h-6.4v-6.4h6.4zM195-392.1h-6.4v-6.4h6.4zM185.4-382.5H179v-6.4h6.4zM185.4-392.1H179v-6.4h6.4zM175.8-382.5h-6.5v-6.4h6.5zM185.4-363.3H179v-6.4h6.4zM185.4-373H179v-6.3h6.4zM175.8-363.3h-6.5v-6.4h6.5zM175.8-373h-6.5v-6.3h6.5zM119-388.2v-6.2h-1.6v6.2H111v1.6h6.3v6.2h1.5v-6.2h6.2v-1.6zM99.5-381.7c-2.5 0-4.9-2.8-5.3-6-.5-3.3 1.2-5.8 3.7-5.8 2.5.1 4.9 2.7 5.3 6 .4 3.3-1.2 6-3.7 5.8m6 10.6v1c0 2.8-1.8 5-7 5-3.7 0-6.4-2.3-6.4-5.1s3.3-5.1 7-5c1 0 1.7 0 2.5.3 2 1.4 3.4 2.2 3.8 3.8m3.4-23.3h-9.7c-4.3 0-8.4 3-8.4 7 0 3.8 3 6.8 7.4 6.8h.9c-.3.5-.5 1.1-.5 1.7 0 1.1.6 2 1.3 2.7h-1.7c-5.4 0-9.5 3.4-9.5 7 0 3.5 4.5 5.7 10 5.7 6 0 9.4-3.5 9.4-7 0-2.8-.8-4.5-3.3-6.3-1-.6-2.6-2.1-2.6-3 0-1 .3-1.6 1.9-2.8 1.6-1.2 2.7-2.8 2.7-4.8 0-2.5-1-5.4-3.1-5.4h3zM402.4-601.2v9.8s2.7 2.6 11.3 2.6c8.5 0 11.4-2.6 11.4-2.6v-8.4l-8 4.2z" fill="#fff"/><path d="M398.3-599.2c0-.7-.3-1.3-.8-1.5v-4l19.5 7.4 16.7-8.7-22.6-7-18.2 6.5 3.8 1.5v4.3c-.5.2-.8.8-.8 1.5l.1.7-1.3 4h4.8l-1.3-4 .1-.7M402.4-380.8v9.8s2.7 2.6 11.3 2.6c8.5 0 11.4-2.6 11.4-2.6v-8.4l-8 4.2z" fill="#fff"/><path d="M398.3-378.8c0-.7-.3-1.2-.8-1.4v-4.1l19.5 7.5 16.7-8.7-22.6-7.1-18.2 6.5 3.8 1.5v4.4c-.5.2-.8.7-.8 1.4l.1.7-1.3 4h4.8l-1.3-4 .1-.7" fill="#fff"/><path d="M-39 21.5h-6.4v-4.2c0-1.6 1-2 1.8-2h4.5V8.4h-6.2c-7 0-8.5 5.1-8.5 8.5v4.6h-4v7.1h4V49h8.4V28.6h5.7zM48.6 15.8c-1.5.7-3.1 1.2-4.8 1.4 1.7-1 3-2.7 3.7-4.7-1.7 1-3.5 1.7-5.4 2A8.4 8.4 0 0 0 28 22.3c-7-.4-13.2-3.7-17.3-8.8a8.3 8.3 0 0 0 2.6 11.2c-1.4 0-2.7-.4-3.8-1 0 4.1 2.9 7.5 6.7 8.3a8.4 8.4 0 0 1-3.8.1c1.1 3.4 4.2 5.8 7.9 5.8a16.8 16.8 0 0 1-12.4 3.5 23.7 23.7 0 0 0 36.6-21.1 17 17 0 0 0 4.2-4.4"/><path d="M133.6 47.2c0 5.4-4.4 9.7-9.7 9.7H86.6a9.7 9.7 0 0 1-9.7-9.7V10C77 4.6 81.3.2 86.6.2H124c5.3 0 9.7 4.4 9.7 9.8z" fill="#253746"/><path d="M118.9 18.9v-7H117v7h-7v1.7h7v7h1.8v-7h7v-1.7zM97 26.1c-2.7 0-5.4-3.1-5.9-6.8-.5-3.7 1.4-6.5 4.2-6.4 2.8 0 5.5 3 6 6.7.4 3.7-1.4 6.6-4.2 6.5m6.7 11.9V39c0 3.2-2 5.7-7.8 5.7-4.2 0-7.2-2.7-7.2-5.9 0-3 3.7-5.7 7.9-5.6 1 0 1.9.2 2.7.4 2.3 1.6 3.9 2.5 4.4 4.3m3.8-26.1h-11c-4.8 0-9.4 3.4-9.4 7.7 0 4.4 3.3 7.8 8.3 7.8l1-.1c-.3.6-.6 1.3-.6 2 0 1.2.7 2.2 1.5 3h-1.9c-6 0-10.7 3.8-10.7 7.8S90 46.5 96 46.5c6.9 0 10.7-4 10.7-7.8 0-3.2-1-5-3.8-7.1-1-.7-2.9-2.4-2.9-3.4 0-1.2.3-1.7 2.1-3.1 1.8-1.4 3-3.1 3-5.4 0-2.8-1.1-6-3.4-6h3.4z" fill="#fff"/><path d="M364.3 47c0 5.3-4.3 9.7-9.7 9.7h-37.2a9.7 9.7 0 0 1-9.8-9.7V9.7c0-5.3 4.4-9.7 9.8-9.7h37.2c5.4 0 9.7 4.4 9.7 9.7z" fill="#253746"/><path d="M351.4 18.8a3.7 3.7 0 1 1-5.3-5.3 3.7 3.7 0 0 1 5.3 5.3M337 12c-3.2 3.2-4 7.9-2.6 12l-17.6 17.6.3 4.5 5.7 1.3 1.8-4.7 5.7-1.7.7-5 5.7-1.3.2-.1 1.2-4 2.9-.1a11.3 11.3 0 1 0-4-18.5" fill="#fff"/><path d="M287.4 47c0 5.3-4.3 9.7-9.7 9.7h-37.2a9.7 9.7 0 0 1-9.8-9.7V9.7c0-5.3 4.4-9.7 9.8-9.7h37.2c5.4 0 9.7 4.4 9.7 9.7z" fill="#253746"/><path d="M266.7 44.5h7.6a21 21 0 0 0-8.7-17.1 9.2 9.2 0 0 1-13.1 0 21 21 0 0 0-8.8 17h7.6z" fill="#fff"/><path d="M267 20a8 8 0 1 1-16 0 8 8 0 0 1 16 0" fill="#fff"/><path d="M210.5 47c0 5.3-4.4 9.7-9.7 9.7h-37.3a9.7 9.7 0 0 1-9.7-9.7V9.7c0-5.3 4.4-9.7 9.7-9.7h37.3c5.3 0 9.7 4.4 9.7 9.7z" fill="#253746"/><path d="M195 46h-6.4v-6.3h6.4zM195 36.5h-6.4V30h6.4zM195 26.9h-6.4v-6.4h6.4zM195 17.3h-6.4v-6.4h6.4zM185.4 26.9H179v-6.4h6.4zM185.4 17.3H179v-6.4h6.4zM175.8 26.9h-6.5v-6.4h6.5zM185.4 46H179v-6.3h6.4zM185.4 36.5H179V30h6.4zM175.8 46h-6.5v-6.3h6.5zM175.8 36.5h-6.5V30h6.5z" fill="#fff"/><path d="M-20.5 248.9a28.3 28.3 0 1 1-56.7 0 28.3 28.3 0 0 1 56.7 0M56.5 248.9a28.3 28.3 0 1 1-56.7 0 28.3 28.3 0 0 1 56.7 0M133.5 248.9a28.3 28.3 0 1 1-56.7 0 28.3 28.3 0 0 1 56.7 0M210.5 248.9a28.3 28.3 0 1 1-56.7 0 28.3 28.3 0 0 1 56.7 0M287.5 248.9a28.3 28.3 0 1 1-56.7 0 28.3 28.3 0 0 1 56.7 0M364.5 248.9a28.3 28.3 0 1 1-56.7 0 28.3 28.3 0 0 1 56.7 0" fill="#253746"/><path d="M-39 241.5h-6.4v-4.2c0-1.6 1-2 1.8-2h4.5v-6.9h-6.2c-7 0-8.5 5.1-8.5 8.5v4.6h-4v7.1h4V269h8.4v-20.3h5.7zM47.6 236.5c-1.5.6-3 1-4.6 1.2a8 8 0 0 0 3.5-4.4 16 16 0 0 1-5 2 8 8 0 0 0-13.6 7.2 22.6 22.6 0 0 1-16.4-8.3 8 8 0 0 0 2.4 10.6 8 8 0 0 1-3.6-1v.1a8 8 0 0 0 6.4 7.8 8 8 0 0 1-3.6.2 8 8 0 0 0 7.5 5.5 16 16 0 0 1-11.8 3.3 22.5 22.5 0 0 0 34.8-20.1c1.6-1.1 3-2.5 4-4.1M266 263.1h7c-.2-7-3.4-12.8-8-15.7a8.5 8.5 0 0 1-12 0 19.3 19.3 0 0 0-8 15.7h7z" fill="#fff"/><path d="M266.4 240.8a7.4 7.4 0 1 1-14.8 0 7.4 7.4 0 0 1 14.8 0M349.2 240.3a3.2 3.2 0 1 1-4.6-4.6 3.2 3.2 0 0 1 4.6 4.6m-12.4-6a9.7 9.7 0 0 0-2.2 10.4l-15.2 15.2.2 4 5 1 1.5-4 4.9-1.5.6-4.4 5-1v-.1l1.2-3.4 2.4-.2a9.7 9.7 0 1 0-3.4-16" fill="#fff"/><path d="M441.6 47c0 5.3-4.3 9.7-9.7 9.7h-37.2A9.7 9.7 0 0 1 385 47V9.7c0-5.3 4.3-9.7 9.7-9.7h37.2c5.4 0 9.7 4.4 9.7 9.7zM441.8 248.9a28.3 28.3 0 1 1-56.7 0 28.3 28.3 0 0 1 56.7 0" fill="#253746"/><path d="M195 266.5h-6.4V260h6.4zM195 256.9h-6.4v-6.4h6.4zM195 247.3h-6.4v-6.5h6.4zM195 237.6h-6.4v-6.4h6.4zM185.4 247.3H179v-6.5h6.4zM185.4 237.6H179v-6.4h6.4zM175.8 247.3h-6.5v-6.5h6.5zM185.4 266.5H179V260h6.4zM185.4 256.9H179v-6.4h6.4zM175.8 266.5h-6.5V260h6.5zM175.8 256.9h-6.5v-6.4h6.5zM119 241.6v-6.2h-1.6v6.2H111v1.6h6.3v6.2h1.5v-6.2h6.2v-1.6zM99.5 248.1c-2.5 0-4.9-2.8-5.3-6-.5-3.3 1.2-5.8 3.7-5.8 2.5.1 4.9 2.7 5.3 6 .4 3.3-1.2 5.9-3.7 5.8m6 10.6v1c0 2.8-1.8 5-7 5-3.7 0-6.4-2.3-6.4-5.2 0-2.7 3.3-5 7-5 1 0 1.7.1 2.5.4 2 1.4 3.4 2.2 3.8 3.8m3.4-23.3h-9.7c-4.3 0-8.4 3-8.4 6.9 0 3.9 3 7 7.4 7l.9-.2c-.3.6-.5 1.2-.5 1.8 0 1.1.6 2 1.3 2.7h-1.7c-5.4 0-9.5 3.4-9.5 7 0 3.5 4.5 5.7 10 5.7 6 0 9.4-3.5 9.4-7 0-2.8-.8-4.5-3.3-6.3-1-.6-2.6-2.1-2.6-3 0-1 .3-1.6 1.9-2.8 1.6-1.3 2.7-2.8 2.7-4.9 0-2.4-1-5.3-3.1-5.3h3zM402.4 28.5v9.8s2.7 2.7 11.3 2.7c8.5 0 11.4-2.7 11.4-2.7V30l-8 4.1z" fill="#fff"/><path d="M398.3 30.5c0-.6-.3-1.2-.8-1.4v-4l19.5 7.4 16.7-8.7-22.6-7-18.2 6.5 3.8 1.4v4.4c-.5.2-.8.8-.8 1.4l.1.8a50 50 0 0 0-1.3 4h4.8l-1.3-4 .1-.8M402.4 249v9.8s2.7 2.6 11.3 2.6c8.5 0 11.4-2.6 11.4-2.6v-8.4l-8 4.2z" fill="#fff"/><path d="M398.3 251c0-.7-.3-1.3-.8-1.4v-4.1L417 253l16.7-8.8-22.6-7-18.2 6.5 3.8 1.5v4.4c-.5.1-.8.7-.8 1.4l.1.7-1.3 4h4.8l-1.3-4 .1-.7" fill="#fff"/></svg>